<svg width="22" height="28" viewBox="0 0 22 28" fill="none" xmlns="http://www.w3.org/2000/svg">
<path d="M20 0H10.3125H2C0.89543 0 0 0.895431 0 2V26.3688C0 27.1153 0.788384 27.5986 1.45368 27.2599L10.0926 22.8619C10.6627 22.5717 11.3373 22.5717 11.9074 22.8619L20.5463 27.2599C21.2116 27.5986 22 27.1153 22 26.3688V2C22 0.895431 21.1046 0 20 0Z" fill="#929292"/>
<path d="M17.6369 8.4163C17.7936 8.25666 17.8789 8.0455 17.8749 7.82732C17.8708 7.60914 17.7777 7.40097 17.6152 7.24667C17.4526 7.09237 17.2334 7.00398 17.0036 7.00013C16.7737 6.99628 16.5513 7.07727 16.3832 7.22603L9.91332 13.3683L6.99184 10.5947C6.82368 10.446 6.60126 10.365 6.37144 10.3688C6.14162 10.3727 5.92235 10.4611 5.75982 10.6154C5.59729 10.7697 5.50419 10.9778 5.50014 11.196C5.49608 11.4142 5.58139 11.6254 5.73808 11.785L9.28644 15.1537C9.45277 15.3114 9.67824 15.4 9.91332 15.4C10.1484 15.4 10.3739 15.3114 10.5402 15.1537L17.6369 8.4163Z" fill="white"/>
</svg>
