<svg width="55" height="55" viewBox="0 0 55 55" fill="none" xmlns="http://www.w3.org/2000/svg">
<rect width="55" height="55" rx="5" fill="#467AFF"/>
<path d="M13 37.65C13 40.115 14.885 42 17.35 42H37.65C40.115 42 42 40.115 42 37.65V26.05H13V37.65ZM37.65 15.9H34.75V14.45C34.75 13.58 34.17 13 33.3 13C32.43 13 31.85 13.58 31.85 14.45V15.9H23.15V14.45C23.15 13.58 22.57 13 21.7 13C20.83 13 20.25 13.58 20.25 14.45V15.9H17.35C14.885 15.9 13 17.785 13 20.25V23.15H42V20.25C42 17.785 40.115 15.9 37.65 15.9Z" fill="white"/>
</svg>
