<svg width="55" height="55" viewBox="0 0 55 55" fill="none" xmlns="http://www.w3.org/2000/svg">
<rect width="55" height="55" rx="5" fill="#2155CD"/>
<path d="M34.943 28.2771L25.8091 26.7743L27.1194 25.8413L29.3129 26.1448L31.5037 25.8413L34.943 28.2771ZM29.3129 11.0161C29.7483 11.0161 30.1795 11.1019 30.5818 11.2685C30.9841 11.4352 31.3496 11.6795 31.6574 11.9875C31.9653 12.2954 32.2095 12.661 32.376 13.0634C32.5425 13.4657 32.6282 13.8969 32.628 14.3323C32.628 16.1644 31.4605 17.6486 29.3129 17.6486C28.8723 17.6566 28.4346 17.5767 28.0252 17.4137C27.6159 17.2506 27.2431 17.0076 26.9287 16.6989C26.6143 16.3901 26.3646 16.0219 26.1941 15.6155C26.0237 15.2092 25.9359 14.773 25.9359 14.3323C25.9359 13.8917 26.0237 13.4555 26.1941 13.0492C26.3646 12.6428 26.6143 12.2746 26.9287 11.9658C27.2431 11.6571 27.6159 11.4141 28.0252 11.251C28.4346 11.088 28.8723 11.0081 29.3129 11.0161ZM30.1381 34.9834V42.9979C30.1381 43.4781 30.3289 43.9387 30.6685 44.2783C31.008 44.6178 31.4686 44.8086 31.9488 44.8086C32.4291 44.8086 32.8896 44.6178 33.2292 44.2783C33.5688 43.9387 33.7595 43.4781 33.7595 42.9979V34.9834C33.7479 34.5109 33.552 34.0616 33.2137 33.7316C32.8754 33.4015 32.4215 33.2167 31.9488 33.2167C31.4762 33.2167 31.0222 33.4015 30.6839 33.7316C30.3456 34.0616 30.1497 34.5109 30.1381 34.9834ZM41.2298 39.5591C41.2297 39.8376 41.1191 40.1046 40.9224 40.3016C40.7257 40.4987 40.4588 40.6097 40.1804 40.6102H34.6285V35.3624H37.0298V30.1179C37.0298 29.5404 37.5007 29.069 38.0788 29.069H40.1804C40.7579 29.069 41.2298 29.5398 41.2298 30.1179V39.5591ZM29.2719 40.6097H18.4935C18.3555 40.6097 18.2189 40.5825 18.0914 40.5297C17.964 40.4768 17.8482 40.3994 17.7507 40.3018C17.6532 40.2041 17.5758 40.0883 17.5231 39.9607C17.4704 39.8332 17.4434 39.6966 17.4435 39.5586V30.1173C17.4438 29.8391 17.5546 29.5723 17.7514 29.3756C17.9483 29.1789 18.2152 29.0684 18.4935 29.0684H20.5941C21.1732 29.0684 21.6441 29.5393 21.6441 30.1173V35.3619H29.2719V40.6097ZM23.5964 29.2866C23.5185 29.7604 23.6319 30.2458 23.9116 30.6361C24.1913 31.0264 24.6146 31.2896 25.0883 31.368L32.9955 32.6713C33.4693 32.7487 33.9545 32.6349 34.3445 32.355C34.7345 32.0751 34.9975 31.6519 35.0759 31.1783C35.1146 30.9437 35.1068 30.7039 35.0528 30.4724C34.9988 30.2408 34.8997 30.0223 34.7611 29.8291C34.6225 29.6359 34.4473 29.472 34.2453 29.3466C34.0433 29.2213 33.8186 29.137 33.584 29.0985L25.6767 27.7942C25.203 27.7168 24.7179 27.8304 24.3279 28.1102C23.9379 28.39 23.6748 28.8131 23.5964 29.2866ZM14.6785 19.3609C12.0984 19.3609 10 17.2625 10 14.6807C10 12.0989 12.0984 10 14.6785 10C17.2587 10 19.3598 12.0995 19.3598 14.6807C19.3598 17.2625 17.2587 19.3609 14.6785 19.3609ZM14.6785 18.2026C15.6124 18.2014 16.5077 17.83 17.1682 17.1696C17.8286 16.5093 18.2002 15.6141 18.2015 14.6802C18.2015 12.7393 16.6194 11.1577 14.6785 11.1577C12.736 11.1577 11.1577 12.7393 11.1577 14.6802C11.1583 15.6139 11.5294 16.5093 12.1895 17.1697C12.8496 17.8301 13.7448 18.2016 14.6785 18.2026Z" fill="white"/>
<path d="M14.7026 15.2987C14.649 15.3233 14.59 15.3339 14.5312 15.3295C14.4724 15.3251 14.4156 15.3058 14.3663 15.2735C14.3243 15.2466 14.2885 15.211 14.2613 15.1691C14.2341 15.1272 14.2162 15.0801 14.2088 15.0307L14.2039 12.3105C14.2074 12.2196 14.2461 12.1336 14.3117 12.0705C14.3773 12.0075 14.4648 11.9722 14.5558 11.9722C14.6468 11.9722 14.7342 12.0075 14.7999 12.0705C14.8655 12.1336 14.9041 12.2196 14.9077 12.3105V14.4209L16.7118 13.5711C16.7535 13.5512 16.7988 13.5397 16.8449 13.5373C16.8911 13.5349 16.9373 13.5417 16.9808 13.5572C17.0243 13.5727 17.0644 13.5966 17.0987 13.6276C17.1329 13.6586 17.1607 13.6961 17.1805 13.7379C17.2202 13.8223 17.2248 13.9191 17.1933 14.0069C17.1619 14.0947 17.0969 14.1665 17.0126 14.2066L14.7026 15.2981V15.2987ZM29.3129 20.2867L33.6119 19.5867V22.6087L35.7343 24.2051C35.9383 24.4107 35.8557 24.6448 35.8076 24.7109C35.7499 24.7877 35.6643 24.8385 35.5693 24.8522C35.4743 24.8659 35.3777 24.8415 35.3007 24.7842L32.6221 22.7597C32.3552 22.5793 32.0283 22.5108 31.7116 22.5687C31.3948 22.6267 31.1133 22.8065 30.9276 23.0697C30.7419 23.3328 30.6668 23.6582 30.7184 23.9761C30.77 24.294 30.9441 24.5791 31.2035 24.77L35.7803 27.9845C35.993 28.1344 36.2954 28.2366 36.5967 28.2366C36.8538 28.2366 37.1562 28.13 37.3815 27.9703C37.8617 27.6291 38.0383 27.0237 37.8753 26.4659L36.1757 21.4434C35.7217 20.1954 34.5771 18.7265 32.8578 18.7265H25.7675C24.0487 18.7265 22.9041 20.1954 22.4496 21.4434L20.75 26.4659C20.5864 27.0237 20.7642 27.6296 21.2443 27.9703C21.468 28.13 21.7715 28.2366 22.0275 28.2366C22.3304 28.2366 22.6334 28.1349 22.8456 27.9845L27.4224 24.77C27.6817 24.5791 27.8559 24.294 27.9074 23.9761C27.959 23.6582 27.8839 23.3328 27.6982 23.0697C27.5125 22.8065 27.2311 22.6267 26.9143 22.5687C26.5975 22.5108 26.2706 22.5793 26.0038 22.7597L23.3235 24.7842C23.2466 24.8413 23.1503 24.8656 23.0555 24.8519C22.9607 24.8381 22.8752 24.7875 22.8177 24.7109C22.7691 24.6314 22.7497 24.5373 22.7629 24.445C22.7761 24.3527 22.821 24.2679 22.8899 24.2051C22.8899 24.2051 24.3292 23.1239 25.0134 22.6087V19.5867L29.3129 20.2873V20.2867Z" fill="white"/>
</svg>
