<svg width="55" height="55" viewBox="0 0 55 55" fill="none" xmlns="http://www.w3.org/2000/svg">
<rect width="55" height="55" rx="5" fill="#F1C917"/>
<path d="M13.0008 22.9422C13.1648 22.65 13.2914 22.3258 13.5023 22.0726C13.7906 21.7273 14.2148 21.6101 14.6602 21.6094C17.1156 21.607 19.5703 21.6023 22.0258 21.6109C23.0164 21.614 23.6953 22.3047 23.6961 23.2937C23.6984 29.2953 23.6984 35.2969 23.6961 41.2992C23.6961 42.1242 23.2891 42.6797 22.5094 42.9445C22.4758 42.9562 22.4461 42.982 22.4148 43.0008H14.2875C13.6352 42.7953 13.2062 42.3664 13.0008 41.714V38.7312C14.5664 38.7297 16.1328 38.7297 17.6984 38.7258C18.107 38.725 18.3469 38.5125 18.3383 38.1726C18.3305 37.8445 18.1055 37.6601 17.6961 37.6594C16.5094 37.657 15.3227 37.657 14.1359 37.6594C13.757 37.6594 13.3789 37.6711 13 37.6781V34.4617C14.5273 34.4578 16.0539 34.4555 17.5812 34.4492C17.7156 34.4492 17.857 34.4445 17.9836 34.4047C18.2242 34.3297 18.3438 34.1469 18.3367 33.8945C18.3297 33.6429 18.2008 33.4687 17.9555 33.4054C17.8352 33.3742 17.7055 33.3711 17.5797 33.3711C16.6945 33.3687 15.8094 33.3719 14.9242 33.3687C14.2828 33.3664 13.6414 33.3562 13 33.35V30.1922C13.1164 30.1859 13.232 30.1734 13.3484 30.1734C14.7492 30.1719 16.15 30.1734 17.5508 30.1711C17.6766 30.1711 17.8055 30.1695 17.9273 30.143C18.1883 30.0867 18.3289 29.9125 18.3359 29.6469C18.3437 29.3812 18.2125 29.1976 17.9562 29.1281C17.8367 29.0953 17.707 29.0937 17.5812 29.0929C16.0539 29.0875 14.5273 29.0844 13 29.0812V25.8648C13.1062 25.8711 13.2125 25.8836 13.3187 25.8836C14.7391 25.8851 16.1594 25.8844 17.5789 25.8836C17.6758 25.8836 17.7742 25.8867 17.8703 25.8758C18.1383 25.8453 18.3164 25.6586 18.3352 25.3992C18.3547 25.1367 18.2117 24.9172 17.9562 24.8484C17.8461 24.8187 17.7258 24.8179 17.6102 24.8179C16.0734 24.8148 14.5367 24.814 13 24.8125V22.9414L13.0008 22.9422Z" fill="white"/>
<path d="M34.2875 43.0008C33.718 42.8813 33.15 42.7563 32.5789 42.6446C32.3149 42.593 32.2359 42.4641 32.2375 42.1867C32.2516 40.0328 32.2281 37.8789 32.2492 35.725C32.2805 32.6352 33.7102 30.4266 36.5102 29.1164C37.5586 28.6258 38.6156 28.1531 39.6719 27.6781C40.9563 27.1 42.0031 26.2406 42.7906 25.0696C42.8227 25.0219 42.8578 24.9774 42.9227 24.8883C42.9313 25.0133 42.9414 25.0938 42.9414 25.1742C42.9422 28.4297 42.9492 31.6852 42.9406 34.9399C42.9297 38.8571 40.2953 42.0656 36.4578 42.8531C36.1844 42.9094 35.9078 42.9524 35.632 43.0008H34.2867H34.2875Z" fill="white"/>
<path d="M35.8203 13.1101C39.5672 13.4726 42.5352 16.5328 42.8953 20.2789C43.1258 22.675 42.2891 24.6086 40.3586 26.0601C40.3133 26.0945 40.2641 26.1242 40.2516 26.132C39.6289 25.6195 39.0235 25.1211 38.4141 24.6187C38.6196 24.3976 38.8805 24.1609 39.0852 23.8828C39.3375 23.5398 39.536 23.157 39.7727 22.8016C39.8524 22.682 39.9602 22.5578 40.0852 22.4945C40.8906 22.0859 41.3336 21.4344 41.3305 20.5367C41.3274 19.6398 40.8805 18.9914 40.0719 18.5875C39.9477 18.525 39.8305 18.4 39.7656 18.275C38.75 16.3086 37.1477 15.2187 34.9297 15.2187C32.7024 15.2187 31.0875 16.3031 30.0719 18.2867C30.0078 18.4109 29.8844 18.5297 29.7586 18.593C28.9531 19.0016 28.5094 19.6523 28.511 20.5492C28.5125 21.4344 28.9531 22.0758 29.7422 22.4875C29.8813 22.5601 30.0133 22.6992 30.0844 22.8398C30.4328 23.525 30.8875 24.1234 31.4461 24.6062C30.8305 25.1117 30.2258 25.6078 29.5906 26.1289C28.7594 25.5805 28.0766 24.8242 27.5961 23.8898C26.6571 22.0625 26.6844 20.1695 27.4078 18.3125C28.5836 15.3 30.8235 13.568 34.036 13.1094C34.036 13.1094 34.7703 13.0086 35.8196 13.1094L35.8203 13.1101Z" fill="white"/>
<path d="M18.6149 13.0008C18.6719 13.0414 18.7235 13.0992 18.7875 13.1203C19.7727 13.4492 20.2156 14.4219 19.7828 15.3695C19.4422 16.1156 19.3281 16.8734 19.55 17.6703C19.7399 18.35 20.1617 18.8336 20.8024 19.1242C21.0328 19.2281 21.2711 19.3141 21.5055 19.4086C22.0461 19.6266 22.093 19.6961 22.0867 20.2758C22.086 20.3531 22.0797 20.4297 22.075 20.525H14.65C14.4805 19.9461 14.618 19.6461 15.1563 19.4258C15.2914 19.3703 15.4235 19.3078 15.5617 19.2617C17.0914 18.757 17.4485 17.2914 17.1836 16.1398C17.1235 15.8766 17.0172 15.6211 16.9094 15.3727C16.4992 14.4273 16.911 13.4656 17.8766 13.1281C17.9524 13.1016 18.0172 13.0437 18.0875 13H18.6141L18.6149 13.0008Z" fill="white"/>
<path d="M26.9172 24.9656C27.3219 25.4258 27.6914 25.8899 28.1078 26.307C28.7336 26.9336 29.4899 27.375 30.2977 27.7344C31.382 28.2172 32.4602 28.7133 33.5399 29.2055C33.6781 29.2688 33.8109 29.3445 33.9578 29.4195C33.6422 29.7539 33.3328 30.0492 33.0617 30.3758C31.8149 31.8789 31.1859 33.6102 31.1836 35.5656C31.1813 37.6117 31.1836 39.6578 31.1836 41.7047C31.1836 41.8078 31.1836 41.9102 31.1836 42.0133L31.1039 42.0805C30.607 41.7149 30.075 41.3875 29.6188 40.9774C27.8617 39.3984 26.9305 37.418 26.9149 35.0492C26.893 31.7555 26.9086 28.4625 26.9086 25.1688C26.9086 25.1024 26.9149 25.0359 26.9188 24.9656H26.9172Z" fill="white"/>
<path d="M37.0297 16.8359C37.8836 17.3336 38.4875 17.989 38.8398 18.8515C38.9875 19.2125 39.1648 19.4531 39.5679 19.5555C40.0117 19.668 40.2742 20.0984 40.2687 20.5578C40.264 21.0031 40.0023 21.4242 39.5703 21.5328C39.1679 21.6336 38.9898 21.8742 38.8414 22.2351C38.1867 23.8195 36.6125 24.8312 34.875 24.818C33.1695 24.8055 31.6062 23.7562 30.9765 22.175C30.8468 21.8492 30.6789 21.6406 30.3226 21.5508C29.8648 21.4351 29.5742 21.0086 29.5711 20.55C29.5679 20.0836 29.8703 19.6492 30.3406 19.5312C30.6734 19.4476 30.8422 19.2594 30.9625 18.9508C31.5914 17.3414 33.1797 16.268 34.8953 16.2719C35.5211 16.2734 35.9523 16.6289 35.9883 17.1734C36.032 17.8445 35.6554 18.3211 35.0093 18.393C34.7273 18.4242 34.4883 18.5039 34.4109 18.8094C34.314 19.1914 34.6109 19.5 35.039 19.4726C36.2164 19.3984 37.0953 18.4273 37.0531 17.2469C37.0492 17.1305 37.0406 17.014 37.0312 16.8351L37.0297 16.8359Z" fill="white"/>
<path d="M39.2179 26.7047C38.1406 27.1961 37.1047 27.664 36.0726 28.1422C35.7375 28.2969 35.4172 28.482 35.0836 28.6398C35.0015 28.6789 34.8765 28.7031 34.8023 28.6687C33.4898 28.057 32.1828 27.4351 30.8742 26.8156C30.8054 26.7828 30.7367 26.7492 30.6312 26.6984C31.1719 26.1234 31.7797 25.6859 32.4789 25.3773C32.5422 25.3492 32.6476 25.3812 32.7211 25.4133C34.1836 26.0531 35.6453 26.0445 37.1109 25.425C37.1929 25.3898 37.3086 25.35 37.3781 25.3812C38.0679 25.6906 38.6726 26.1211 39.2195 26.7054L39.2179 26.7047Z" fill="white"/>
</svg>
