<svg width="55" height="55" viewBox="0 0 55 55" fill="none" xmlns="http://www.w3.org/2000/svg">
<rect width="55" height="55" rx="5" fill="#E8C00F"/>
<path d="M21.0009 21.5989C21.1923 21.258 21.34 20.8798 21.5861 20.5845C21.9224 20.1816 22.4173 20.0449 22.9368 20.044C25.8014 20.0413 28.6652 20.0358 31.5298 20.0458C32.6855 20.0495 33.4775 20.8552 33.4784 22.0091C33.4812 29.0107 33.4812 36.0123 33.4784 43.0149C33.4784 43.9774 33.0036 44.6254 32.094 44.9344C32.0548 44.948 32.0202 44.9781 31.9837 45H22.502C21.741 44.7603 21.2406 44.2599 21.0009 43.4989V40.019C22.8274 40.0172 24.6549 40.0172 26.4814 40.0126C26.958 40.0117 27.2379 39.7638 27.2278 39.3673C27.2187 38.9845 26.9562 38.7694 26.4786 38.7685C25.0942 38.7658 23.7097 38.7658 22.3252 38.7685C21.8832 38.7685 21.442 38.7822 21 38.7904V35.038C22.7819 35.0335 24.5628 35.0307 26.3447 35.0234C26.5014 35.0234 26.6664 35.018 26.814 34.9715C27.0948 34.884 27.2342 34.6707 27.226 34.3763C27.2178 34.0828 27.0674 33.8796 26.7812 33.8058C26.6409 33.7693 26.4896 33.7657 26.3428 33.7657C25.3102 33.7629 24.2775 33.7666 23.2449 33.7629C22.4966 33.7602 21.7483 33.7483 21 33.741V30.057C21.1358 30.0497 21.2707 30.0352 21.4065 30.0352C23.0407 30.0333 24.6749 30.0352 26.3091 30.0324C26.4558 30.0324 26.6062 30.0306 26.7484 29.9996C27.0528 29.934 27.2169 29.7307 27.2251 29.4208C27.2342 29.111 27.0811 28.8968 26.7821 28.8157C26.6427 28.7774 26.4914 28.7755 26.3447 28.7746C24.5628 28.7683 22.7819 28.7646 21 28.761V25.0086C21.124 25.0159 21.2479 25.0305 21.3719 25.0305C23.0289 25.0323 24.6858 25.0314 26.3419 25.0305C26.4549 25.0305 26.5698 25.0341 26.6819 25.0213C26.9945 24.9858 27.2023 24.768 27.2242 24.4654C27.247 24.1591 27.0802 23.903 26.7821 23.8228C26.6536 23.7882 26.5133 23.7873 26.3784 23.7873C24.5856 23.7836 22.7928 23.7827 21 23.7809V21.598L21.0009 21.5989Z" fill="white"/>
<path d="M27.5505 10.0009C27.617 10.0483 27.6772 10.1158 27.7519 10.1404C28.9012 10.5241 29.418 11.6588 28.9131 12.7644C28.5157 13.6348 28.3826 14.5189 28.6415 15.4486C28.863 16.2415 29.3551 16.8057 30.1025 17.1447C30.3714 17.266 30.6494 17.3662 30.9228 17.4765C31.5535 17.7308 31.6082 17.8119 31.6009 18.4882C31.6 18.5784 31.5927 18.6677 31.5872 18.7789H22.925C22.7272 18.1036 22.8876 17.7536 23.5156 17.4965C23.6732 17.4318 23.8273 17.3589 23.9886 17.3051C25.7732 16.7164 26.1897 15.0065 25.8807 13.6631C25.8106 13.3559 25.6866 13.0579 25.5608 12.768C25.0823 11.6652 25.5626 10.5432 26.6892 10.1495C26.7776 10.1185 26.8532 10.051 26.9353 10H27.5496L27.5505 10.0009Z" fill="white"/>
</svg>
