<svg width="24" height="24" viewBox="0 0 24 24" fill="none" xmlns="http://www.w3.org/2000/svg">
<path fill-rule="evenodd" clip-rule="evenodd" d="M18.7312 0.270256C18.9043 0.0972113 19.1391 0 19.3839 0C19.6286 0 19.8634 0.0972113 20.0365 0.270256L23.7288 3.96245C23.8148 4.0482 23.883 4.15005 23.9295 4.2622C23.976 4.37434 24 4.49456 24 4.61597C24 4.73738 23.976 4.8576 23.9295 4.96975C23.883 5.08189 23.8148 5.18375 23.7288 5.26949L16.4512 12.5468C16.3109 12.6876 16.1488 12.8048 15.9712 12.8939L8.7213 16.5178C8.54816 16.6042 8.35223 16.634 8.16122 16.603C7.9702 16.572 7.79375 16.4818 7.65682 16.3451C7.51988 16.2083 7.42938 16.032 7.3981 15.8411C7.36683 15.6501 7.39636 15.4541 7.48252 15.2809L11.1066 8.02941C11.1957 7.85177 11.3129 7.68969 11.4536 7.54942L18.7312 0.270256V0.270256ZM19.3848 2.22897L12.757 8.85646L10.8426 12.689L11.3115 13.1579L15.146 11.2416L21.7719 4.61597L19.3848 2.22897ZM14.7694 1.84682L12.9232 3.69292H5.35389C4.56373 3.69292 4.02465 3.69292 3.61111 3.728C3.20495 3.76123 2.99818 3.8203 2.85418 3.89415C2.50681 4.07114 2.2244 4.35354 2.0474 4.70089C1.97355 4.84489 1.91448 5.05165 1.88125 5.45779C1.84617 5.87132 1.84617 6.41038 1.84617 7.20051V18.6463C1.84617 19.4364 1.84617 19.9755 1.88125 20.389C1.91448 20.7952 1.97355 21.0019 2.0474 21.1459C2.2244 21.4933 2.50681 21.7757 2.85418 21.9527C2.99818 22.0265 3.20495 22.0856 3.61111 22.1188C4.02649 22.1539 4.56373 22.1539 5.35389 22.1539H16.8001C17.5903 22.1539 18.1294 22.1539 18.5429 22.1188C18.9491 22.0856 19.1558 22.0265 19.2999 21.9527C19.6472 21.7757 19.9296 21.4933 20.1066 21.1459C20.1805 21.0019 20.2395 20.7952 20.2728 20.389C20.3079 19.9737 20.3079 19.4364 20.3079 18.6463V11.0773L22.154 9.23122V18.6832C22.154 19.4272 22.154 20.0401 22.1134 20.5404C22.0709 21.0592 21.9805 21.5373 21.7516 21.9841C21.3976 22.6788 20.8327 23.2436 20.138 23.5976C19.6894 23.8265 19.2131 23.9169 18.6943 23.9594C18.1958 24 17.5811 24 16.8389 24H5.31697C4.57296 24 3.96003 24 3.45972 23.9594C2.94095 23.9169 2.46279 23.8265 2.01602 23.5976C1.32129 23.2436 0.756456 22.6788 0.402465 21.9841C0.17354 21.5355 0.0830777 21.0592 0.0406159 20.5404C1.3755e-07 20.042 0 19.4272 0 18.6832V7.16359C0 6.41961 1.3755e-07 5.8067 0.0406159 5.30641C0.0830777 4.78766 0.17354 4.30952 0.402465 3.86276C0.756456 3.16806 1.32129 2.60325 2.01602 2.24927C2.46464 2.02036 2.94095 1.9299 3.45972 1.88744C3.95819 1.84682 4.57296 1.84682 5.31697 1.84682H14.7694Z" fill="#5C4EA1"/>
</svg>
