<svg width="22" height="28" viewBox="0 0 22 28" fill="none" xmlns="http://www.w3.org/2000/svg">
<path d="M20 0H10.3125H2C0.89543 0 0 0.895431 0 2V26.3688C0 27.1153 0.788384 27.5986 1.45368 27.2599L10.0926 22.8619C10.6627 22.5717 11.3373 22.5717 11.9074 22.8619L20.5463 27.2599C21.2116 27.5986 22 27.1153 22 26.3688V2C22 0.895431 21.1046 0 20 0Z" fill="#929292"/>
<path fill-rule="evenodd" clip-rule="evenodd" d="M16.7725 7.32466C16.8446 7.25269 16.9018 7.16724 16.9408 7.07318C16.9798 6.97911 16.9999 6.87828 17 6.77644C17.0001 6.67461 16.9801 6.57375 16.9412 6.47964C16.9022 6.38553 16.8452 6.3 16.7732 6.22795C16.7012 6.15589 16.6158 6.09872 16.5217 6.05969C16.4277 6.02066 16.3268 6.00054 16.225 6.00048C16.1232 6.00041 16.0223 6.02041 15.9282 6.05932C15.8341 6.09824 15.7486 6.15531 15.6765 6.22728L10.9999 10.904L6.32464 6.22728C6.17912 6.08175 5.98175 6 5.77595 6C5.57016 6 5.37279 6.08175 5.22727 6.22728C5.08175 6.3728 5 6.57017 5 6.77597C5 6.98177 5.08175 7.17914 5.22727 7.32466L9.90388 12L5.22727 16.6753C5.15522 16.7474 5.09806 16.8329 5.05907 16.9271C5.02007 17.0212 5 17.1221 5 17.224C5 17.3259 5.02007 17.4268 5.05907 17.521C5.09806 17.6151 5.15522 17.7007 5.22727 17.7727C5.37279 17.9182 5.57016 18 5.77595 18C5.87785 18 5.97876 17.9799 6.0729 17.9409C6.16704 17.9019 6.25258 17.8448 6.32464 17.7727L10.9999 13.096L15.6765 17.7727C15.822 17.9181 16.0193 17.9996 16.225 17.9995C16.4307 17.9994 16.6279 17.9176 16.7732 17.772C16.9185 17.6265 17.0001 17.4292 17 17.2236C16.9999 17.0179 16.918 16.8207 16.7725 16.6753L12.0959 12L16.7725 7.32466Z" fill="white"/>
</svg>
