<svg width="55" height="55" viewBox="0 0 55 55" fill="none" xmlns="http://www.w3.org/2000/svg">
<rect width="55" height="55" rx="5" fill="black"/>
<path d="M15.0114 45V44.5352C15.0114 42.5052 15.0247 40.4741 15.0001 38.444C14.995 38.0396 15.1292 37.799 15.4314 37.5523C19.3184 34.392 23.1091 31.1222 26.6367 27.5596C28.9402 25.2337 31.1383 22.8146 32.9379 20.0648C33.9775 18.476 34.8563 16.8124 35.2066 14.7895C35.4606 15.3935 35.7115 15.8808 35.8734 16.3957C36.2769 17.6826 36.6805 18.9725 37.0062 20.2808C37.2756 21.3629 36.9499 22.4092 36.576 23.4206C35.7873 25.5551 34.507 27.3979 33.0966 29.1556C30.7286 32.106 27.9948 34.6951 25.1372 37.1602C21.9917 39.8742 18.6885 42.3854 15.3115 44.8004C15.2326 44.8567 15.1497 44.9089 15.0114 45Z" fill="white"/>
<path d="M40.7616 45C36.4984 42.0897 32.4742 38.9702 28.6316 35.621C30.052 34.2024 31.4629 32.793 32.8896 31.3684C32.9167 31.3857 32.972 31.4152 33.019 31.4538C35.531 33.5623 38.043 35.6708 40.5477 37.7884C40.6667 37.889 40.7783 38.0729 40.7794 38.2182C40.794 40.4223 40.7888 42.6263 40.7877 44.8303C40.7877 44.8659 40.7773 44.9014 40.7606 45H40.7616Z" fill="white"/>
<path d="M33.32 16.2632C29.5579 14.4185 25.8628 14.4235 22.1108 16.2479C21.7597 15.2895 21.4735 14.263 21.7302 13.1653C21.9474 12.2353 22.5604 11.5981 23.3632 11.1671C26.2291 9.62835 29.1296 9.60294 31.9966 11.1397C33.6082 12.0036 34.0984 13.3909 33.6072 15.3261C33.523 15.6564 33.4083 15.9776 33.321 16.2632H33.32Z" fill="white"/>
<path d="M26.7895 25.3024C25.4786 26.7021 24.1848 28.0844 22.8341 29.5263C22.2155 28.6581 21.6498 27.8979 21.1179 27.1131C20.327 25.9431 19.6507 24.7071 19.1616 23.365C18.6755 22.0312 18.4953 20.6748 18.9325 19.2987C19.3887 17.864 19.8957 16.4477 20.3828 15.0233C20.4067 14.9543 20.4475 14.8925 20.4993 14.7895C21.1657 18.142 23.0831 20.7201 25.0762 23.2507C25.6241 23.947 26.2108 24.6113 26.7885 25.3014L26.7895 25.3024Z" fill="white"/>
</svg>
