<svg width="15" height="23" viewBox="0 0 15 23" fill="none" xmlns="http://www.w3.org/2000/svg">
<g clip-path="url(#clip0_107_2332)">
<path d="M6.84994 22.1724C6.37506 22.0875 5.89368 22.0255 5.42726 21.9129C2.78747 21.2769 0.6824 19.1173 0.432602 16.7097C0.32917 15.7155 0.364949 14.7074 0.380561 13.7063C0.389668 13.123 1.00441 12.6621 1.70956 12.6403C1.93594 12.6334 2.16232 12.6391 2.42773 12.6391C2.42773 12.5375 2.42773 12.448 2.42773 12.3584C2.42773 9.68045 2.42708 7.00307 2.42839 4.32511C2.42839 3.65806 2.84146 3.14084 3.50044 2.9669C4.45995 2.71432 5.42661 3.33889 5.43702 4.23671C5.45003 5.37505 5.44092 6.5134 5.44092 7.65175C5.44092 8.58975 5.44092 9.52775 5.44092 10.4658C5.44092 10.5346 5.44092 10.6035 5.44092 10.7C5.91385 9.87391 6.47329 9.55818 7.21163 9.68045C7.96167 9.80445 8.39492 10.2901 8.47233 11.1334C8.59137 10.7752 8.77742 10.5019 9.09032 10.3085C9.40127 10.1162 9.74734 10.0266 10.1246 10.0685C10.9092 10.1552 11.3196 10.588 11.5005 11.5186C11.5298 11.4514 11.5512 11.3997 11.5746 11.3486C11.8446 10.7534 12.5094 10.425 13.2393 10.526C13.9054 10.6185 14.4668 11.1431 14.4727 11.7895C14.487 13.3997 14.5501 15.0163 14.42 16.6196C14.2118 19.1879 11.9617 21.3883 9.09162 21.9933C8.72278 22.0708 8.34418 22.1133 7.97013 22.1718H6.84994V22.1724Z" fill="#7A7A7A"/>
<path d="M6.89919 6.0554C6.89919 5.40098 6.92456 4.79421 6.89334 4.18916C6.83739 3.09903 6.24217 2.29478 5.11353 1.8453C3.15873 1.06803 0.999662 2.34013 0.967787 4.2724C0.95868 4.81545 0.966486 5.35908 0.966486 5.91361C0.0440541 5.1771 -0.547265 3.20695 0.751165 1.62773C2.10749 -0.023242 4.78892 -0.317731 6.53751 0.993406C8.37521 2.37171 8.34789 4.69203 6.89919 6.05598V6.0554Z" fill="#7A7A7A"/>
</g>
<defs>
<clipPath id="clip0_107_2332">
<rect width="14.5" height="22" fill="white" transform="translate(0 0.172417)"/>
</clipPath>
</defs>
</svg>
