<svg width="55" height="55" viewBox="0 0 55 55" fill="none" xmlns="http://www.w3.org/2000/svg">
<rect width="55" height="55" rx="5" fill="#083AA9"/>
<path d="M10.0015 23.6719C13.2892 23.4386 15.4396 21.0472 15.9886 18.5291C16.0687 18.163 16.1126 17.7891 16.1761 17.4014H17.9666C18.0921 18.1491 18.1783 18.8937 18.3477 19.6182C18.6411 20.8757 19.2263 21.9957 20.0006 23.0169C20.1004 23.1482 20.1805 23.3382 20.1805 23.5004C20.1911 27.1462 20.1881 30.7905 20.1881 34.4364C20.1881 34.526 20.1805 34.6156 20.1745 34.7253H16.1579C16.0324 33.0522 15.4169 31.5861 14.2404 30.3904C13.0699 29.1993 11.6423 28.5799 10.0015 28.4563V23.6703V23.6719Z" fill="white"/>
<path d="M10.0015 36.7969H20.1624V39.8727H10.0015V36.7969Z" fill="white"/>
<path d="M34.0979 45V41.9458H44.2724C44.2724 42.3614 44.2724 42.7877 44.2724 43.2157C44.2724 43.4551 44.2694 43.693 44.2724 43.9325C44.2799 44.4716 43.9624 44.7744 43.5359 45H34.0979Z" fill="white"/>
<path d="M10.0015 41.9242H20.176V45H10.738C10.4068 44.8362 10.1618 44.586 10.0015 44.2477V41.9227V41.9242Z" fill="white"/>
<path d="M22.1827 45V41.9474H32.088V45H22.1827Z" fill="white"/>
<path d="M10.0015 30.5078C10.9422 30.6175 11.7996 30.9373 12.5285 31.5676C13.4722 32.3848 14.009 33.4245 14.136 34.7453H10.0015V30.5063V30.5078Z" fill="white"/>
<path d="M10.0015 18.1352C10.2692 17.545 10.7244 17.3473 11.3474 17.3751C12.1595 17.4106 12.9731 17.3844 13.7867 17.3844H14.1149C14.0302 19.4251 12.3637 21.2805 10.3962 21.5585C10.2646 21.5771 10.1331 21.6018 10 21.6234V18.1367L10.0015 18.1352Z" fill="white"/>
<path d="M27.1445 10C31.0491 10.0031 34.2279 13.255 34.2294 17.2438C34.2294 21.2434 31.0325 24.4984 27.1097 24.4891C23.2111 24.4798 20.0338 21.214 20.0414 17.2268C20.0505 13.2411 23.2383 9.99691 27.1445 10ZM28.5705 17.2901C28.6129 17.2082 28.6189 17.1851 28.6341 17.1696C28.9637 16.8298 29.2964 16.493 29.6246 16.1516C30.0888 15.6665 30.1191 15.0625 29.7062 14.6314C29.2828 14.1896 28.6794 14.219 28.1955 14.7118C27.8492 15.0625 27.5104 15.4209 27.1294 15.8148C26.7437 15.41 26.3883 15.0362 26.0315 14.6654C25.791 14.4167 25.5007 14.2854 25.1559 14.3348C24.7596 14.392 24.4738 14.616 24.3392 15.0022C24.1986 15.4039 24.2878 15.7715 24.5752 16.0743C24.9457 16.4621 25.3328 16.8359 25.7426 17.2453C25.3252 17.6609 24.9441 18.027 24.5797 18.4086C24.2803 18.7206 24.1941 19.0991 24.3498 19.5101C24.495 19.8947 24.7869 20.1095 25.1846 20.1543C25.5294 20.1944 25.8137 20.0508 26.0526 19.802C26.4095 19.4344 26.7694 19.0698 27.149 18.682C27.5225 19.0729 27.8522 19.4266 28.1925 19.7711C28.6764 20.2639 29.2813 20.2948 29.7047 19.8577C30.1282 19.4189 30.0934 18.8133 29.6049 18.3128C29.2677 17.9668 28.9184 17.6315 28.5721 17.2886L28.5705 17.2901Z" fill="white"/>
<path d="M36.2437 17.3952H38.0751C38.5847 21.0719 40.6353 23.1683 44.2527 23.7105V28.4192C40.658 28.9398 38.6029 31.03 38.0766 34.7284H34.0842V34.37C34.0842 30.7705 34.0842 27.171 34.0888 23.5715C34.0888 23.4216 34.1054 23.2347 34.1901 23.1266C35.4952 21.4597 36.1711 19.5595 36.2437 17.3967V17.3952Z" fill="white"/>
<path d="M22.2175 34.7252V25.0931C25.5037 27.0288 28.7686 27.0319 32.0548 25.0931V34.7237H22.2175V34.7252Z" fill="white"/>
<path d="M44.2587 36.817V39.8526H34.1084V36.817H44.2587Z" fill="white"/>
<path d="M22.216 39.8526V36.8231H32.0517V39.8526H22.216Z" fill="white"/>
<path d="M40.162 34.7222C40.1983 32.6057 42.0962 30.6623 44.2482 30.5418C44.2557 30.5959 44.2693 30.6515 44.2693 30.7056C44.2693 32.0357 44.2693 33.3673 44.2693 34.7206H40.1605L40.162 34.7222Z" fill="white"/>
<path d="M44.2511 21.591C42.0614 21.4226 40.3389 19.6677 40.1484 17.406C40.2331 17.3983 40.3177 17.3828 40.4009 17.3828C41.3264 17.3813 42.2519 17.3797 43.1789 17.3828C43.8519 17.3859 44.2663 17.803 44.2693 18.4874C44.2738 19.4328 44.2708 20.3783 44.2693 21.3237C44.2693 21.4118 44.2572 21.5014 44.2511 21.5894V21.591Z" fill="white"/>
</svg>
