<svg width="55" height="55" viewBox="0 0 55 55" fill="none" xmlns="http://www.w3.org/2000/svg">
<rect width="55" height="55" rx="5" fill="#00C886"/>
<path d="M10 21.4349C10.1096 20.8667 10.1882 20.2903 10.3343 19.7322C11.5428 15.103 15.8679 11.853 20.6433 12.011C23.1159 12.0932 25.2524 13.0688 27.1505 14.6152C27.2565 14.7011 27.3615 14.7878 27.4876 14.892C27.747 14.6874 28 14.48 28.2613 14.2836C30.2827 12.7664 32.5315 11.9297 35.0864 12.0046C39.8298 12.1435 44.165 15.9936 44.8811 20.6859C45.2647 23.1978 44.7066 25.5005 43.3995 27.6444C43.3347 27.7512 43.1584 27.8526 43.0332 27.8526C40.3331 27.8645 37.6321 27.859 34.932 27.8672C34.7092 27.8672 34.6178 27.7732 34.5237 27.5959C33.4176 25.5289 32.305 23.4654 31.1915 21.4029C30.8819 20.8302 30.3338 20.579 29.836 20.8494C29.5876 20.9845 29.3592 21.2458 29.235 21.5043C27.9379 24.2007 26.6637 26.9081 25.3831 29.6119C25.3255 29.7334 25.2643 29.8539 25.1784 30.0266C25.0889 29.8987 25.0186 29.8055 24.9565 29.7069C24.118 28.3915 23.2813 27.0753 22.4418 25.7609C21.8892 24.8959 21.0333 24.9086 20.5017 25.7892C20.1244 26.4131 19.7582 27.0424 19.369 27.6581C19.306 27.7576 19.1452 27.8535 19.0302 27.8535C16.6717 27.8645 14.3132 27.8663 11.9538 27.8517C11.8223 27.8517 11.6414 27.7302 11.5684 27.6133C10.7444 26.2779 10.2174 24.8356 10.0585 23.2672C10.0512 23.2024 10.0201 23.1393 10 23.0763V21.4358V21.4349Z" fill="white"/>
<path d="M13.3532 29.9133H13.778C15.7373 29.9133 17.6966 29.9051 19.6559 29.9188C20.1783 29.9225 20.5492 29.7306 20.804 29.2758C21.0187 28.8912 21.2571 28.5185 21.5037 28.1084C22.3797 29.4831 23.2283 30.8158 24.0778 32.1485C24.1883 32.3211 24.2943 32.4965 24.4075 32.6673C24.9154 33.4264 25.8617 33.3661 26.2636 32.5403C26.6865 31.6708 27.0921 30.7939 27.5059 29.9197C28.4211 27.9878 29.3364 26.0559 30.2781 24.0683C30.3594 24.2062 30.4215 24.3049 30.4773 24.4072C31.335 25.9993 32.2009 27.5877 33.0449 29.1881C33.3153 29.7005 33.6925 29.9252 34.2753 29.9206C36.5762 29.9042 38.8771 29.9142 41.1781 29.9142C41.3014 29.9142 41.4256 29.9142 41.6147 29.9142C41.5215 30.0275 41.4685 30.1042 41.4028 30.1691C37.0439 34.5088 32.6841 38.8485 28.3225 43.1864C27.7717 43.7344 27.2072 43.7253 26.6546 43.1754C22.3012 38.8457 17.9487 34.5152 13.5971 30.1837C13.5277 30.1143 13.4656 30.0385 13.3532 29.9142V29.9133Z" fill="white"/>
</svg>
