<svg width="17" height="18" viewBox="0 0 17 18" fill="none" xmlns="http://www.w3.org/2000/svg">
<path d="M8.14431 15.8332H3.97114C2.97535 15.8332 2.16681 15.0218 2.16681 14.0289V3.97114C2.16681 2.97535 2.97821 2.16681 3.97114 2.16681H8.21222C8.60496 2.16681 8.92063 1.85114 8.92063 1.4584C8.92063 1.06566 8.60496 0.75 8.21222 0.75H3.97114C2.19281 0.75 0.75 2.19658 0.75 3.97114V14.0289C0.75 15.8072 2.19658 17.25 3.97114 17.25H8.14431C8.53705 17.25 8.85272 16.9343 8.85272 16.5416C8.85272 16.1477 8.53245 15.8332 8.14431 15.8332Z" fill="black" stroke="black" stroke-width="0.5"/>
<path d="M15.8711 8.49896L12.9594 5.58723C12.6818 5.30963 12.2349 5.30963 11.9573 5.58723C11.6797 5.86482 11.6797 6.31174 11.9573 6.58934L13.6629 8.29499H4.96597C4.57323 8.29499 4.25757 8.61065 4.25757 9.00339C4.25757 9.39613 4.57323 9.7118 4.96597 9.7118H13.6629L11.9573 11.4174C11.6797 11.695 11.6797 12.142 11.9573 12.4196C12.0922 12.5545 12.2745 12.6286 12.4566 12.6286C12.6337 12.6286 12.8186 12.5612 12.9575 12.4181L15.8694 9.50614C16.1479 9.22762 16.1531 8.77666 15.8721 8.4999C15.8717 8.49959 15.8714 8.49927 15.8711 8.49896Z" fill="black" stroke="black" stroke-width="0.5"/>
</svg>
