<svg width="55" height="55" viewBox="0 0 55 55" fill="none" xmlns="http://www.w3.org/2000/svg">
<rect width="55" height="55" rx="5" fill="#F3CC1F"/>
<path d="M18.9243 34.5327C18.3797 34.5327 17.9027 34.5373 17.4256 34.5327C16.9043 34.5269 16.7391 34.3244 16.8543 33.8206C17.6967 30.1181 18.5426 26.4168 19.3862 22.7155C19.4118 22.6026 19.4816 22.4723 19.4479 22.3792C19.392 22.221 19.2955 21.9976 19.1721 21.965C19.0488 21.9324 18.858 22.0814 18.7265 22.1872C18.6613 22.2396 18.6625 22.3734 18.6334 22.47C17.9155 24.8565 17.1964 27.2418 16.4796 29.6294C16.3156 30.1775 15.9898 30.5545 15.3987 30.6184C14.412 30.7243 13.7825 29.9296 14.0699 28.9127C14.4003 27.7421 14.7657 26.5809 15.1218 25.4173C15.593 23.8791 16.0724 22.3443 16.5448 20.8073C17.0556 19.1445 18.4693 18.0193 20.2124 17.974C21.7215 17.9344 23.2318 17.9367 24.741 17.9693C26.4596 18.0065 27.9338 19.0642 28.4516 20.7025C29.1195 22.8156 29.7082 24.953 30.3086 27.0859C30.3924 27.3826 30.3971 27.7223 30.3517 28.0295C30.2586 28.6532 29.8665 28.9883 29.2731 29.0337C28.7553 29.0732 28.2538 28.7544 28.0676 28.2134C27.7604 27.3232 27.4765 26.425 27.1938 25.5267C26.8645 24.476 26.5433 23.423 26.2292 22.3676C26.1442 22.0825 25.9976 21.8661 25.6846 21.9371C25.3577 22.0115 25.3483 22.2757 25.4147 22.5642C26.1954 25.9677 26.9727 29.3734 27.7488 32.778C27.8361 33.1597 27.928 33.5402 28.0001 33.9241C28.0746 34.3267 27.9059 34.5245 27.4916 34.5315C27.0309 34.5397 26.5701 34.5339 26.0651 34.5339C26.0651 34.7491 26.0651 34.919 26.0651 35.0889C26.0651 37.8617 26.0709 40.6333 26.0616 43.4061C26.0581 44.5696 24.9469 45.3236 23.9218 44.8628C23.2912 44.5789 22.9921 44.0693 22.9933 43.3723C22.9979 40.6147 22.9944 37.857 22.9944 35.0993C22.9944 34.9283 22.9944 34.7573 22.9944 34.5618H22.0217C22.0217 34.7503 22.0217 34.9202 22.0217 35.09C22.0217 37.8186 22.0252 40.5472 22.0194 43.2769C22.0182 44.2578 21.4434 44.9338 20.5894 44.9897C19.6434 45.0513 18.9313 44.3532 18.9289 43.3339C18.922 40.5902 18.9266 37.8477 18.9266 35.104C18.9266 34.9318 18.9266 34.7607 18.9266 34.5362L18.9243 34.5327Z" fill="white"/>
<path d="M38.2942 34.6281C38.2849 34.7933 38.2686 34.9586 38.2686 35.1238C38.2674 37.9687 38.2639 40.8125 38.2697 43.6574C38.2697 44.1857 38.0673 44.5848 37.6077 44.8419C37.1865 45.0769 36.7664 45.0339 36.3755 44.7721C35.9635 44.4963 35.8332 44.0798 35.8344 43.6027C35.8379 42.0354 35.8356 40.4681 35.8356 38.9007C35.8356 38.7425 35.8356 38.5831 35.8356 38.3888H35.1141V38.8239C35.1141 40.4052 35.1153 41.9877 35.1141 43.569C35.1141 44.3835 34.601 44.9722 33.8936 44.9839C33.1803 44.9943 32.652 44.4288 32.6497 43.6015C32.6416 40.4378 32.6404 37.2741 32.6544 34.1103C32.6555 33.7636 32.5566 33.6123 32.225 33.4936C30.8892 33.0166 29.9281 32.1136 29.3452 30.8174C29.0811 30.2298 29.2591 29.6341 29.7699 29.3455C30.2888 29.0523 30.9625 29.2117 31.2767 29.7784C32.0423 31.156 33.2466 31.7169 34.7616 31.7529C35.6319 31.7739 36.5023 31.8158 37.3726 31.8158C38.5269 31.8146 39.374 32.3324 39.9616 33.2935C40.7225 34.5385 40.9029 35.929 40.9017 37.3509C40.9017 37.8617 40.4805 38.2445 39.9744 38.2666C39.4508 38.2887 39.0179 37.8954 38.9644 37.3322C38.9202 36.8703 38.9295 36.4014 38.8527 35.9464C38.7759 35.4915 38.6223 35.0482 38.5013 34.6002C38.4338 34.6107 38.3652 34.62 38.2977 34.6304L38.2942 34.6281Z" fill="white"/>
<path d="M25.9778 13.4617C25.9732 15.3641 24.4559 16.8814 22.5488 16.8907C20.6452 16.9 19.0848 15.3397 19.0918 13.4349C19.0988 11.5499 20.6429 10.0094 22.5325 10C24.4396 9.99073 25.9825 11.5418 25.9778 13.4617Z" fill="white"/>
<path d="M35.497 25.3777C37.0992 25.3707 38.3466 26.6111 38.3466 28.2098C38.3466 29.7841 37.1039 31.0373 35.5354 31.0454C33.9518 31.0536 32.6765 29.7853 32.6777 28.204C32.6777 26.6344 33.9262 25.3847 35.497 25.3777Z" fill="white"/>
</svg>
