<svg width="247" height="247" viewBox="0 0 247 247" fill="none" xmlns="http://www.w3.org/2000/svg">
<g clip-path="url(#clip0_366_26)">
<path d="M19.266 119.844C19.9082 121.376 20.5504 122.957 21.1432 124.488C27.664 141.284 58.9342 218.743 85.5114 231.291C115.349 245.37 232.476 194.587 235.44 158.327C238.355 122.117 195.525 27.2687 171.171 21.6371C146.817 16.0549 40.8538 62.0957 24.3542 79.6821C10.2258 94.7491 16.9936 114.46 19.266 119.844Z" fill="#6376FD"/>
<path opacity="0.8" d="M19.266 119.844C19.9082 121.376 20.5504 122.957 21.1432 124.488C27.664 141.284 58.9342 218.743 85.5114 231.291C115.349 245.37 232.476 194.587 235.44 158.327C238.355 122.117 195.525 27.2687 171.171 21.6371C146.817 16.0549 40.8538 62.0957 24.3542 79.6821C10.2258 94.7491 16.9936 114.46 19.266 119.844Z" fill="white"/>
<path d="M193.105 51.6117C202.908 41.8091 202.908 25.916 193.105 16.1134C183.303 6.31074 167.409 6.31074 157.607 16.1134C147.804 25.916 147.804 41.8091 157.607 51.6117C167.409 61.4144 183.303 61.4144 193.105 51.6117Z" fill="white" stroke="#6376FD" stroke-width="3" stroke-miterlimit="10" stroke-linecap="round" stroke-linejoin="round"/>
<path d="M175.372 24.2494C171.64 24.2494 167.977 25.1992 164.653 27.1666C163.296 27.9807 162.075 28.9983 160.854 30.016C160.107 30.5587 159.361 30.8301 158.479 30.5587C157.122 30.1516 156.512 28.5234 157.258 27.3701C157.529 26.9631 157.868 26.6239 158.208 26.2847C162.346 22.6212 167.163 20.3824 172.726 19.8397C180.324 19.0935 186.905 21.4001 192.603 26.3525C193.146 26.8274 193.689 27.3701 193.757 28.2521C193.825 29.2019 193.485 29.9481 192.671 30.423C191.857 30.8979 191.043 30.8301 190.229 30.2873C189.754 29.9481 189.415 29.6089 188.94 29.2697C185.141 26.149 180.799 24.5208 175.914 24.3173C175.779 24.2494 175.643 24.2494 175.372 24.2494Z" fill="#263238"/>
<path d="M186.565 36.3252C185.887 36.3252 185.344 36.0538 184.802 35.5789C182.834 33.7472 180.528 32.4582 177.814 31.9833C173.676 31.3049 169.876 32.1868 166.62 34.9005C166.213 35.2397 165.874 35.5789 165.467 35.8503C164.517 36.5287 163.228 36.393 162.482 35.5111C161.735 34.6291 161.735 33.408 162.55 32.5261C164.381 30.6265 166.552 29.2697 168.994 28.3877C173.743 26.6238 178.424 26.8274 183.038 28.9983C184.937 29.8802 186.565 31.0335 188.058 32.5261C188.736 33.2045 188.94 34.1543 188.533 35.0362C188.194 35.9181 187.515 36.3252 186.565 36.3252Z" fill="#263238"/>
<path d="M175.304 34.8326C178.357 34.9005 181.002 35.9859 183.106 38.2247C183.92 39.1067 183.987 40.4635 183.173 41.2776C182.359 42.1595 181.002 42.2274 180.053 41.4811C179.239 40.8705 178.492 40.1921 177.542 39.7851C175.168 38.8353 172.997 39.378 171.165 41.0741C170.487 41.6846 169.809 42.1595 168.859 41.956C167.231 41.6846 166.416 39.7172 167.502 38.4282C168.52 37.1393 169.809 36.2573 171.301 35.6467C172.522 35.104 173.879 34.8326 175.304 34.8326Z" fill="#263238"/>
<path d="M175.372 48.0619C173.811 48.0619 172.658 46.9085 172.658 45.3482C172.658 43.9235 173.879 42.6345 175.304 42.6345C176.864 42.6345 178.085 43.8557 178.017 45.416C178.017 46.8407 176.864 48.0619 175.372 48.0619Z" fill="#263238"/>
<path d="M154.273 46.6372L194.978 18.8221" stroke="#6376FD" stroke-width="3" stroke-miterlimit="10" stroke-linecap="round" stroke-linejoin="round"/>
<path d="M52.5616 186.683C54.2412 187.275 58.292 186.93 58.292 186.93C58.3414 186.93 57.2546 184.361 57.1558 184.163C56.1678 182.385 53.1544 179.47 50.882 179.915C49.2518 180.261 48.4614 181.94 48.906 183.472C49.4 185.052 51.129 186.139 52.5616 186.683Z" fill="#6376FD"/>
<path d="M54.6859 198.292C56.4149 198.44 59.9717 197.155 60.2187 197.057C60.9103 199.033 61.7995 201.009 62.7875 202.985C63.3803 204.121 63.9731 205.208 64.6153 206.294C64.2695 205.85 63.9237 205.405 63.8743 205.356C62.4417 203.874 58.7861 201.898 56.7113 202.935C55.2293 203.676 54.8835 205.553 55.7727 206.887C56.6619 208.27 58.5885 208.863 60.1199 208.962C61.7007 209.11 64.7141 208.073 65.5045 207.776C65.7515 208.221 65.9985 208.616 66.2455 209.061C67.4311 211.086 68.6167 213.062 69.7035 215.088C70.0987 215.779 70.4445 216.52 70.7903 217.212C70.4939 216.817 70.1975 216.471 70.1481 216.421C68.7155 214.939 65.0599 212.963 62.9851 214.001C61.5031 214.742 61.1573 216.619 62.0465 217.953C62.9357 219.336 64.8623 219.929 66.3937 220.028C67.8757 220.126 70.6915 219.237 71.6301 218.891C71.9759 219.632 72.3217 220.373 72.6181 221.114C72.8157 221.608 73.0133 222.102 73.2109 222.596C73.4085 223.09 73.5567 223.584 73.7543 224.078C74.0507 225.066 74.3471 226.054 74.6435 226.993C74.8411 227.635 74.9893 228.277 75.1869 228.92C74.7917 228.228 74.0507 226.845 73.9519 226.746C72.7663 225.066 69.4071 222.547 67.2335 223.288C65.6527 223.782 65.0599 225.61 65.7021 227.042C66.3443 228.524 68.1721 229.414 69.6541 229.759C71.2843 230.155 74.8411 229.463 75.2857 229.364C75.5821 230.402 75.8291 231.439 76.0761 232.427C76.1749 232.773 76.2737 233.168 76.3231 233.514H77.7557C77.6569 233.069 77.5087 232.575 77.4099 232.081C77.1135 230.994 76.8171 229.858 76.4713 228.673C76.7183 228.524 78.2003 227.833 79.5341 226.993C80.8185 228.179 83.9307 229.512 84.3259 229.661C83.9801 230.698 83.6343 231.686 83.2885 232.625C83.1897 232.921 83.0909 233.168 82.9921 233.464H84.4741C84.5235 233.316 84.5729 233.217 84.6223 233.069C84.9681 232.032 85.3633 230.896 85.7091 229.71C86.1537 229.759 89.7599 230.253 91.3901 229.809C92.8721 229.364 94.6505 228.426 95.1939 226.894C95.7373 225.412 95.0457 223.634 93.4649 223.239C91.2419 222.646 88.0803 225.363 86.9441 227.092C86.8947 227.191 86.3019 228.376 85.9067 229.117C86.0549 228.623 86.2031 228.179 86.3513 227.685C86.6477 226.697 86.8947 225.709 87.1911 224.671C87.2899 224.177 87.4381 223.634 87.5369 223.14C87.6851 222.646 87.7345 222.053 87.8333 221.51C88.0309 220.225 88.2285 218.941 88.3273 217.656C89.1671 217.903 92.2299 218.743 93.7613 218.546C95.2927 218.348 97.1699 217.656 97.9603 216.224C98.7507 214.841 98.3061 213.013 96.7747 212.321C94.6505 211.383 91.0937 213.556 89.7599 215.137C89.6611 215.236 88.8213 216.471 88.3767 217.113C88.4261 216.323 88.5249 215.532 88.5743 214.742C88.7225 212.42 88.7719 210.098 88.8707 207.776C88.8707 207.085 88.9201 206.344 88.9695 205.652C89.2659 205.751 92.8721 206.838 94.6011 206.591C96.1325 206.393 98.0097 205.702 98.8001 204.269C99.5905 202.886 99.1459 201.058 97.6145 200.366C95.4903 199.428 91.9335 201.601 90.5997 203.182C90.5009 203.281 89.2659 205.059 88.9695 205.504C89.0189 203.923 89.1177 202.392 89.2659 200.86C89.4635 198.736 89.7599 196.661 90.2045 194.685C90.3527 194.735 94.1071 195.871 95.8361 195.624C97.3675 195.426 99.2447 194.735 100.035 193.302C100.825 191.919 100.381 190.091 98.8495 189.4C96.7253 188.461 93.1685 190.635 91.8347 192.215C91.7359 192.314 90.4021 194.241 90.2045 194.587C90.2539 194.488 90.2539 194.34 90.2539 194.241C90.7479 192.117 91.4889 190.141 92.2793 188.313C92.7239 187.275 93.2179 186.287 93.7613 185.299C94.4529 185.596 97.5157 186.831 99.1459 186.831C100.677 186.781 102.653 186.337 103.592 185.003C104.53 183.719 104.283 181.841 102.851 181.002C100.825 179.865 97.0711 181.644 95.5397 183.027C95.4409 183.126 94.6999 183.966 94.1565 184.608C94.4035 184.163 94.6011 183.719 94.8481 183.323C95.7373 181.792 96.6265 180.458 97.4169 179.322C97.8615 178.68 98.3061 178.087 98.7013 177.494C99.4917 177.445 102.752 177.099 104.135 176.358C105.469 175.617 107 174.283 107.247 172.702C107.494 171.122 106.408 169.541 104.728 169.491C102.406 169.393 99.8869 172.702 99.1953 174.629C99.1459 174.777 98.4543 177.544 98.5037 177.494H98.5531C98.1579 178.038 97.7133 178.581 97.2687 179.223C96.4289 180.359 95.5397 181.693 94.6011 183.175C93.7119 184.657 92.7239 186.337 91.8841 188.165C91.0443 189.992 90.2539 191.968 89.7105 194.093C89.7105 194.093 89.7105 194.142 89.7105 194.191C89.6611 193.5 89.5129 191.623 89.5129 191.474C89.1177 189.449 87.1417 185.793 84.8693 185.497C83.2391 185.299 81.9053 186.683 81.9053 188.263C81.8559 189.894 83.1403 191.425 84.3753 192.413C85.7585 193.5 89.4141 194.389 89.7105 194.438C89.2165 196.464 88.8213 198.637 88.5743 200.811C88.4261 202.046 88.3273 203.33 88.2285 204.565C88.1791 203.973 88.1297 203.479 88.1297 203.38C87.7345 201.354 85.7585 197.699 83.4861 197.402C81.8559 197.205 80.5221 198.588 80.5221 200.169C80.4727 201.799 81.7571 203.33 82.9921 204.318C84.2271 205.306 87.3393 206.097 88.1297 206.294C88.0803 206.788 88.0803 207.282 88.0309 207.727C87.8827 210.049 87.7839 212.371 87.5863 214.643C87.5369 215.433 87.4381 216.224 87.3393 217.014C87.2899 216.52 87.2405 216.076 87.2405 215.977C86.8453 213.951 84.8693 210.296 82.5969 209.999C80.9667 209.802 79.6329 211.185 79.6329 212.766C79.5835 214.396 80.8679 215.927 82.1029 216.915C83.2885 217.854 86.1537 218.595 87.0923 218.891C86.9935 219.682 86.8453 220.522 86.6971 221.263C86.5983 221.806 86.4995 222.3 86.3513 222.843C86.2031 223.387 86.1043 223.881 85.9561 224.375C85.6597 225.363 85.3633 226.351 85.0669 227.289C84.8693 227.932 84.6717 228.574 84.4247 229.216C84.4741 228.426 84.6223 226.845 84.6223 226.697C84.5729 225.313 83.9307 223.14 82.8933 221.658C82.8933 221.46 82.8439 221.263 82.7945 221.065C82.4487 219.484 80.8679 218.447 79.2871 218.941C77.1135 219.682 75.9279 223.683 75.9773 225.758C75.9773 225.857 76.1255 227.191 76.2737 228.03C76.1255 227.536 75.9773 227.092 75.8291 226.598C75.5327 225.61 75.1869 224.671 74.8411 223.634C74.6435 223.14 74.4459 222.646 74.2977 222.152C74.1001 221.658 73.8531 221.164 73.6555 220.62C73.1615 219.435 72.5687 218.299 71.9265 217.113C72.7663 216.866 75.7797 215.878 76.9653 214.841C78.1015 213.803 79.3365 212.222 79.1883 210.592C79.0895 209.011 77.7063 207.727 76.0761 207.974C73.8037 208.369 72.0253 212.124 71.7783 214.198C71.7783 214.347 71.7289 215.829 71.7289 216.619C71.3337 215.927 70.9879 215.236 70.5927 214.544C69.4565 212.568 68.2215 210.543 66.9865 208.567C66.5913 207.974 66.2455 207.332 65.8997 206.739C66.1961 206.64 69.8023 205.553 71.0867 204.417C72.2229 203.38 73.4579 201.799 73.3097 200.169C73.2109 198.588 71.8277 197.304 70.1975 197.551C67.9251 197.946 66.1467 201.7 65.8997 203.775C65.8997 203.923 65.8009 206.047 65.8503 206.64C65.0599 205.306 64.2201 203.973 63.5285 202.589C62.5405 200.712 61.6513 198.835 60.9103 196.908C61.0585 196.859 64.8129 195.772 66.1467 194.587C67.2829 193.549 68.5179 191.968 68.3697 190.338C68.2709 188.757 66.8877 187.473 65.2575 187.72C62.9851 188.115 61.2067 191.87 60.9597 193.944C60.9597 194.093 60.8609 196.414 60.9103 196.81C60.8609 196.711 60.8115 196.563 60.7621 196.464C60.0211 194.438 59.5271 192.364 59.1813 190.388C58.9837 189.251 58.8355 188.165 58.7367 187.078C59.4777 186.93 62.7381 186.287 64.0719 185.349C65.3563 184.46 66.6901 182.978 66.7889 181.347C66.8383 179.767 65.6527 178.334 63.9731 178.433C61.6513 178.581 59.5271 182.138 58.9837 184.114C58.9343 184.213 58.7861 185.349 58.6873 186.189C58.6379 185.695 58.5885 185.201 58.5885 184.756C58.4897 183.027 58.4897 181.397 58.4897 180.014C58.4897 179.223 58.5391 178.482 58.5885 177.791C59.2307 177.297 61.7501 175.222 62.4911 173.839C63.1827 172.455 63.7261 170.529 63.0345 169.047C62.3429 167.614 60.6139 166.873 59.1813 167.762C57.2053 168.948 56.9089 173.098 57.4029 175.123C57.4523 175.321 58.3909 177.939 58.4403 177.889C58.4403 177.889 58.4897 177.889 58.4897 177.84C58.4403 178.482 58.3909 179.223 58.3415 179.964C58.2921 181.397 58.2427 182.978 58.3415 184.756C58.3909 186.485 58.5391 188.412 58.8355 190.388C59.1319 192.364 59.5765 194.488 60.2681 196.563C60.2681 196.563 60.2681 196.612 60.3175 196.612C59.9223 196.069 58.7367 194.587 58.6379 194.488C57.2053 193.006 53.5497 191.03 51.4749 192.067C49.9929 192.808 49.6471 194.685 50.5363 196.019C51.2279 197.6 53.1545 198.143 54.6859 198.292Z" fill="#6376FD"/>
<path d="M93.5636 184.954C93.613 184.954 94.107 182.237 94.1564 182.039C94.3046 179.964 93.4154 175.913 91.2418 175.024C89.7104 174.382 88.0802 175.37 87.6356 176.901C87.191 178.482 87.9814 180.31 88.92 181.545C89.9574 182.978 93.5142 184.954 93.5636 184.954Z" fill="#6376FD"/>
<path d="M18.4262 206.986C19.3648 207.332 21.6866 207.134 21.6866 207.134C21.6866 207.134 21.0938 205.652 21.0444 205.603C20.4516 204.566 18.772 202.935 17.4876 203.232C16.549 203.429 16.1044 204.368 16.3514 205.257C16.6478 206.097 17.5864 206.69 18.4262 206.986Z" fill="#6376FD"/>
<path d="M19.6118 213.606C20.5998 213.704 22.5758 212.963 22.7734 212.914C23.1686 214.05 23.6626 215.137 24.2554 216.273C24.6012 216.915 24.947 217.558 25.2928 218.15C25.0952 217.903 24.8976 217.656 24.8976 217.607C24.0578 216.767 22.0324 215.631 20.8468 216.224C20.007 216.668 19.8094 217.706 20.3034 218.447C20.7974 219.237 21.8842 219.534 22.7734 219.632C23.6626 219.682 25.3916 219.138 25.8362 218.941C25.9844 219.188 26.1326 219.435 26.2314 219.632C26.923 220.769 27.5652 221.905 28.2074 223.041C28.405 223.436 28.652 223.831 28.8496 224.227C28.652 223.98 28.5038 223.782 28.5038 223.782C27.664 222.942 25.6386 221.806 24.453 222.399C23.6132 222.843 23.4156 223.881 23.9096 224.622C24.4036 225.412 25.4904 225.709 26.3796 225.807C27.2194 225.857 28.8002 225.363 29.3436 225.165C29.5412 225.56 29.7388 226.005 29.887 226.4C29.9858 226.697 30.134 226.944 30.2328 227.24C30.3316 227.536 30.4304 227.833 30.5292 228.08C30.6774 228.623 30.875 229.216 31.0232 229.71C31.122 230.105 31.2208 230.451 31.3196 230.797C31.122 230.402 30.6774 229.611 30.628 229.562C29.9364 228.623 28.0592 227.191 26.8242 227.586C25.935 227.882 25.5892 228.87 25.935 229.71C26.3302 230.55 27.3182 231.044 28.158 231.241C29.0966 231.439 31.122 231.093 31.369 231.044C31.5172 231.637 31.6654 232.229 31.8136 232.773C31.863 232.97 31.9124 233.168 31.9618 233.366H32.7522C32.7028 233.119 32.604 232.822 32.5546 232.575C32.4064 231.982 32.2088 231.34 32.0112 230.649C32.1594 230.599 32.9992 230.155 33.7402 229.71C34.4318 230.402 36.2102 231.143 36.4572 231.241C36.2596 231.834 36.062 232.378 35.8644 232.921C35.815 233.069 35.7656 233.217 35.7162 233.366H36.556C36.556 233.316 36.6054 233.217 36.6054 233.168C36.803 232.575 37.0006 231.933 37.1982 231.291C37.4452 231.34 39.4706 231.587 40.4092 231.34C41.249 231.093 42.237 230.55 42.5828 229.661C42.8792 228.821 42.484 227.833 41.5948 227.586C40.3104 227.24 38.532 228.771 37.8898 229.759C37.8404 229.809 37.4946 230.5 37.297 230.896C37.3958 230.649 37.4452 230.352 37.544 230.105C37.6922 229.562 37.8404 229.018 37.9886 228.426C38.038 228.129 38.1368 227.833 38.1862 227.536C38.2356 227.24 38.285 226.944 38.3838 226.598C38.4826 225.857 38.5814 225.165 38.6802 224.424C39.1742 224.572 40.9032 225.066 41.743 224.918C42.5828 224.819 43.6696 224.424 44.1142 223.634C44.5588 222.843 44.3118 221.806 43.472 221.411C42.2864 220.867 40.261 222.102 39.4706 222.992C39.4212 223.041 38.9272 223.733 38.6802 224.128C38.7296 223.683 38.779 223.239 38.779 222.794C38.8778 221.51 38.8778 220.176 38.9272 218.842C38.9272 218.447 38.9766 218.052 38.9766 217.656C39.1248 217.706 41.1996 218.299 42.1382 218.2C42.978 218.101 44.0648 217.706 44.5094 216.915C44.954 216.125 44.707 215.088 43.8672 214.692C42.6816 214.149 40.6562 215.384 39.8658 216.273C39.8164 216.323 39.1248 217.311 38.9272 217.607C38.9766 216.718 39.026 215.829 39.0754 214.989C39.1742 213.803 39.3718 212.618 39.6188 211.481C39.7176 211.481 41.7924 212.173 42.8298 212.025C43.6696 211.926 44.7564 211.531 45.201 210.74C45.6456 209.95 45.3986 208.913 44.5588 208.517C43.3732 207.974 41.3478 209.209 40.5574 210.098C40.508 210.148 39.767 211.234 39.6188 211.432C39.6188 211.383 39.6188 211.284 39.6682 211.234C39.9646 210.049 40.3598 208.913 40.8044 207.875C41.0514 207.282 41.3478 206.739 41.6442 206.196C42.0394 206.344 43.7684 207.085 44.707 207.035C45.5962 207.035 46.683 206.739 47.2264 205.998C47.7698 205.257 47.6216 204.22 46.8312 203.726C45.695 203.083 43.5708 204.071 42.6816 204.862C42.6322 204.911 42.1876 205.405 41.8912 205.751C42.0394 205.504 42.1382 205.257 42.2864 205.01C42.7804 204.17 43.2744 203.38 43.719 202.738C43.966 202.342 44.213 202.046 44.46 201.7C44.9046 201.651 46.7818 201.503 47.5228 201.058C48.2638 200.613 49.153 199.872 49.2518 198.983C49.4 198.094 48.7578 197.205 47.8192 197.155C46.5348 197.106 45.1022 198.983 44.6576 200.07C44.6082 200.169 44.2624 201.7 44.2624 201.7C44.2624 201.7 44.2624 201.7 44.3118 201.7C44.0648 201.997 43.8672 202.293 43.5708 202.688C43.1262 203.33 42.5828 204.071 42.0888 204.961C41.5948 205.8 41.0514 206.739 40.5574 207.776C40.0634 208.814 39.6188 209.95 39.3224 211.136V211.185C39.3224 210.79 39.2236 209.752 39.2236 209.654C38.9766 208.517 37.8898 206.443 36.6054 206.294C35.6668 206.196 34.9258 206.937 34.9258 207.875C34.9258 208.814 35.6174 209.654 36.309 210.197C37.0994 210.79 39.1742 211.284 39.3224 211.333C39.026 212.469 38.8284 213.704 38.6802 214.939C38.5814 215.631 38.532 216.372 38.4826 217.064C38.4332 216.718 38.4332 216.421 38.4332 216.421C38.1862 215.285 37.0994 213.21 35.815 213.062C34.8764 212.963 34.1354 213.704 34.1354 214.643C34.1354 215.582 34.827 216.421 35.5186 216.965C36.2102 217.508 37.9886 217.953 38.4332 218.101C38.4332 218.397 38.3838 218.644 38.3838 218.941C38.3344 220.275 38.2356 221.559 38.1368 222.843C38.0874 223.288 38.038 223.733 37.9886 224.177C37.9886 223.881 37.9392 223.634 37.9392 223.584C37.6922 222.448 36.6054 220.373 35.321 220.225C34.3824 220.126 33.6414 220.867 33.6414 221.806C33.6414 222.745 34.333 223.584 35.0246 224.128C35.6668 224.671 37.297 225.116 37.8404 225.215C37.791 225.659 37.6922 226.104 37.6428 226.548C37.5934 226.845 37.544 227.141 37.4452 227.438C37.3464 227.734 37.297 228.03 37.2476 228.327C37.0994 228.87 36.9018 229.463 36.7536 229.957C36.6548 230.352 36.5066 230.698 36.4078 231.044C36.4572 230.599 36.5066 229.71 36.5066 229.611C36.4572 228.821 36.1114 227.586 35.5186 226.746C35.5186 226.647 35.5186 226.499 35.4692 226.4C35.2716 225.511 34.3824 224.918 33.4932 225.215C32.2582 225.61 31.616 227.882 31.616 229.068C31.616 229.117 31.7148 229.858 31.7642 230.352C31.6654 230.105 31.616 229.809 31.5172 229.562C31.369 229.018 31.1714 228.475 30.9738 227.882C30.875 227.586 30.7762 227.339 30.6774 227.042C30.5786 226.746 30.4304 226.45 30.3316 226.203C30.0352 225.56 29.6894 224.869 29.3436 224.227C29.8376 224.078 31.5172 223.535 32.1594 222.942C32.8016 222.349 33.4932 221.46 33.4438 220.522C33.3944 219.632 32.604 218.891 31.6654 219.04C30.381 219.287 29.393 221.411 29.2448 222.547C29.2448 222.596 29.1954 223.486 29.1954 223.93C28.9978 223.535 28.7508 223.14 28.5532 222.745C27.911 221.608 27.2194 220.472 26.5278 219.385C26.3302 219.04 26.1326 218.694 25.8856 218.348C26.0338 218.299 28.1086 217.706 28.8496 217.064C29.4918 216.471 30.1834 215.582 30.134 214.643C30.0846 213.754 29.2942 213.013 28.3556 213.161C27.0712 213.408 26.0832 215.532 25.935 216.668C25.935 216.767 25.8856 217.953 25.8856 218.299C25.441 217.558 24.9964 216.767 24.5518 216.026C23.959 214.989 23.465 213.902 23.0698 212.815C23.1686 212.815 25.2928 212.173 26.0338 211.481C26.676 210.889 27.3676 209.999 27.3182 209.061C27.2688 208.172 26.4784 207.431 25.5398 207.579C24.2554 207.826 23.2674 209.95 23.1192 211.086C23.1192 211.185 23.0698 212.469 23.0698 212.716C23.0698 212.667 23.0204 212.568 22.971 212.519C22.5264 211.383 22.2794 210.197 22.0818 209.11C21.983 208.468 21.8842 207.826 21.8348 207.233C22.23 207.134 24.1072 206.788 24.8482 206.245C25.5398 205.751 26.3302 204.911 26.3796 203.973C26.429 203.083 25.7374 202.244 24.7988 202.293C23.5144 202.392 22.2794 204.368 21.983 205.504C21.983 205.553 21.8842 206.196 21.8348 206.69C21.8348 206.393 21.7854 206.146 21.7854 205.85C21.736 204.862 21.736 203.973 21.736 203.133C21.736 202.688 21.7854 202.244 21.7854 201.898C22.1312 201.601 23.5638 200.465 24.0084 199.675C24.4036 198.884 24.7 197.798 24.3048 196.958C23.9096 196.118 22.9216 195.723 22.1312 196.217C20.995 196.908 20.8468 199.23 21.1432 200.366C21.1432 200.465 21.6866 201.947 21.736 201.947C21.6866 202.342 21.6866 202.738 21.6866 203.133C21.6372 203.923 21.6372 204.862 21.6866 205.85C21.736 206.838 21.7854 207.925 21.983 209.061C22.1806 210.197 22.3782 211.383 22.8228 212.568V212.618C22.5758 212.321 21.9336 211.481 21.8842 211.383C21.0444 210.543 19.019 209.407 17.8334 209.999C16.9936 210.444 16.796 211.481 17.29 212.222C17.6852 213.161 18.772 213.507 19.6118 213.606Z" fill="#6376FD"/>
<path d="M41.5948 206.047C41.5948 206.047 41.8912 204.516 41.9406 204.417C42.0394 203.232 41.496 200.959 40.3104 200.465C39.4212 200.119 38.532 200.663 38.285 201.552C38.038 202.441 38.4826 203.479 39.026 204.17C39.5694 204.911 41.5948 206.047 41.5948 206.047Z" fill="#6376FD"/>
<path d="M201.7 206.986C202.639 207.332 204.961 207.134 204.961 207.134C204.961 207.134 204.368 205.652 204.318 205.603C203.726 204.566 202.046 202.935 200.762 203.232C199.823 203.429 199.378 204.368 199.625 205.257C199.922 206.097 200.91 206.69 201.7 206.986Z" fill="#6376FD"/>
<path d="M202.935 213.606C203.923 213.704 205.899 212.963 206.097 212.914C206.492 214.05 206.986 215.137 207.579 216.273C207.925 216.915 208.27 217.558 208.616 218.15C208.419 217.903 208.221 217.656 208.221 217.607C207.381 216.767 205.356 215.631 204.17 216.224C203.33 216.668 203.133 217.706 203.627 218.447C204.121 219.237 205.208 219.534 206.097 219.632C206.986 219.682 208.715 219.138 209.16 218.941C209.308 219.188 209.456 219.435 209.555 219.632C210.246 220.769 210.889 221.905 211.531 223.041C211.728 223.436 211.975 223.831 212.173 224.227C211.975 223.98 211.827 223.782 211.827 223.782C210.987 222.942 208.962 221.806 207.776 222.399C206.937 222.843 206.739 223.881 207.233 224.622C207.727 225.412 208.814 225.709 209.703 225.807C210.543 225.857 212.124 225.363 212.667 225.165C212.865 225.56 213.062 226.005 213.21 226.4C213.309 226.697 213.457 226.944 213.556 227.24C213.655 227.536 213.754 227.833 213.853 228.08C214.001 228.623 214.198 229.216 214.347 229.71C214.445 230.105 214.544 230.451 214.643 230.797C214.445 230.402 214.001 229.611 213.951 229.562C213.26 228.623 211.383 227.191 210.148 227.586C209.258 227.882 208.913 228.87 209.258 229.71C209.654 230.55 210.642 231.044 211.481 231.241C212.42 231.439 214.445 231.093 214.692 231.044C214.841 231.637 214.989 232.229 215.137 232.773C215.186 232.97 215.236 233.168 215.285 233.366H216.076C216.026 233.119 215.927 232.822 215.878 232.575C215.73 231.982 215.532 231.34 215.335 230.649C215.483 230.599 216.323 230.155 217.064 229.71C217.755 230.402 219.534 231.143 219.781 231.241C219.583 231.834 219.385 232.378 219.188 232.921C219.138 233.069 219.089 233.217 219.04 233.366H219.879C219.879 233.316 219.929 233.217 219.929 233.168C220.126 232.575 220.324 231.933 220.522 231.291C220.769 231.34 222.794 231.587 223.733 231.34C224.572 231.093 225.56 230.55 225.906 229.661C226.203 228.821 225.807 227.833 224.918 227.586C223.634 227.24 221.855 228.771 221.213 229.759C221.164 229.809 220.818 230.5 220.62 230.896C220.719 230.649 220.769 230.352 220.867 230.105C221.016 229.562 221.164 229.018 221.312 228.426C221.361 228.129 221.46 227.833 221.51 227.536C221.559 227.24 221.608 226.944 221.707 226.598C221.806 225.857 221.905 225.165 222.004 224.424C222.498 224.572 224.227 225.066 225.066 224.918C225.906 224.819 226.993 224.424 227.438 223.634C227.882 222.843 227.635 221.806 226.795 221.411C225.61 220.867 223.584 222.102 222.794 222.992C222.745 223.041 222.251 223.733 222.004 224.128C222.053 223.683 222.102 223.239 222.102 222.794C222.201 221.51 222.201 220.176 222.251 218.842C222.251 218.447 222.3 218.052 222.3 217.656C222.448 217.706 224.523 218.299 225.462 218.2C226.301 218.101 227.388 217.706 227.833 216.915C228.277 216.125 228.03 215.088 227.191 214.692C226.005 214.149 223.98 215.384 223.189 216.273C223.14 216.323 222.448 217.311 222.251 217.607C222.3 216.718 222.349 215.829 222.399 214.989C222.498 213.803 222.695 212.618 222.942 211.481C223.041 211.481 225.116 212.173 226.153 212.025C226.993 211.926 228.08 211.531 228.524 210.74C228.969 209.95 228.722 208.913 227.882 208.517C226.697 207.974 224.671 209.209 223.881 210.098C223.831 210.148 223.09 211.234 222.942 211.432C222.942 211.383 222.942 211.284 222.992 211.234C223.288 210.049 223.683 208.913 224.128 207.875C224.375 207.282 224.671 206.739 224.968 206.196C225.363 206.344 227.092 207.085 228.03 207.035C228.92 207.035 230.006 206.739 230.55 205.998C231.093 205.257 230.945 204.22 230.155 203.726C229.018 203.083 226.894 204.071 226.005 204.862C225.956 204.911 225.511 205.405 225.215 205.751C225.363 205.504 225.462 205.257 225.61 205.01C226.104 204.17 226.598 203.38 227.042 202.738C227.289 202.342 227.536 202.046 227.783 201.7C228.228 201.651 230.105 201.503 230.846 201.058C231.587 200.613 232.476 199.872 232.575 198.983C232.723 198.094 232.081 197.205 231.143 197.155C229.858 197.106 228.426 198.983 227.981 200.07C227.932 200.169 227.586 201.7 227.586 201.7C227.586 201.7 227.586 201.7 227.635 201.7C227.388 201.997 227.191 202.293 226.894 202.688C226.45 203.33 225.906 204.071 225.412 204.961C224.918 205.8 224.375 206.739 223.881 207.776C223.387 208.814 222.942 209.95 222.646 211.136V211.185C222.646 210.79 222.547 209.752 222.547 209.654C222.3 208.517 221.213 206.443 219.929 206.294C218.99 206.196 218.249 206.937 218.249 207.875C218.249 208.814 218.941 209.654 219.632 210.197C220.423 210.79 222.498 211.284 222.646 211.333C222.349 212.469 222.152 213.704 222.004 214.939C221.905 215.631 221.855 216.372 221.806 217.064C221.757 216.718 221.757 216.421 221.757 216.421C221.51 215.285 220.423 213.21 219.138 213.062C218.2 212.963 217.459 213.704 217.459 214.643C217.459 215.582 218.15 216.421 218.842 216.965C219.534 217.508 221.312 217.953 221.757 218.101C221.757 218.397 221.707 218.644 221.707 218.941C221.658 220.275 221.559 221.559 221.46 222.843C221.411 223.288 221.361 223.733 221.312 224.177C221.312 223.881 221.263 223.634 221.263 223.584C221.016 222.448 219.929 220.373 218.644 220.225C217.706 220.126 216.965 220.867 216.965 221.806C216.965 222.745 217.656 223.584 218.348 224.128C218.99 224.671 220.62 225.116 221.164 225.215C221.114 225.659 221.016 226.104 220.966 226.548C220.917 226.845 220.867 227.141 220.769 227.438C220.67 227.734 220.62 228.03 220.571 228.327C220.423 228.87 220.225 229.463 220.077 229.957C219.978 230.352 219.83 230.698 219.731 231.044C219.781 230.599 219.83 229.71 219.83 229.611C219.781 228.821 219.435 227.586 218.842 226.746C218.842 226.647 218.842 226.499 218.793 226.4C218.595 225.511 217.706 224.918 216.817 225.215C215.582 225.61 214.939 227.882 214.939 229.068C214.939 229.117 215.038 229.858 215.088 230.352C214.989 230.105 214.939 229.809 214.841 229.562C214.692 229.018 214.495 228.475 214.297 227.882C214.198 227.586 214.1 227.339 214.001 227.042C213.902 226.746 213.754 226.45 213.655 226.203C213.359 225.56 213.013 224.869 212.667 224.227C213.161 224.078 214.841 223.535 215.483 222.942C216.125 222.349 216.817 221.46 216.767 220.522C216.718 219.632 215.927 218.891 214.989 219.04C213.704 219.287 212.716 221.411 212.568 222.547C212.568 222.596 212.519 223.486 212.519 223.93C212.321 223.535 212.074 223.14 211.877 222.745C211.234 221.608 210.543 220.472 209.851 219.385C209.654 219.04 209.456 218.694 209.209 218.348C209.357 218.299 211.432 217.706 212.173 217.064C212.815 216.471 213.507 215.582 213.457 214.643C213.408 213.754 212.618 213.013 211.679 213.161C210.395 213.408 209.407 215.532 209.258 216.668C209.258 216.767 209.209 217.953 209.209 218.299C208.764 217.558 208.32 216.767 207.875 216.026C207.282 214.989 206.788 213.902 206.393 212.815C206.492 212.815 208.616 212.173 209.357 211.481C209.999 210.889 210.691 209.999 210.642 209.061C210.592 208.172 209.802 207.431 208.863 207.579C207.579 207.826 206.591 209.95 206.443 211.086C206.443 211.185 206.393 212.469 206.393 212.716C206.393 212.667 206.344 212.568 206.294 212.519C205.85 211.383 205.603 210.197 205.405 209.11C205.306 208.468 205.208 207.826 205.158 207.233C205.553 207.134 207.431 206.788 208.172 206.245C208.863 205.751 209.654 204.911 209.703 203.973C209.752 203.083 209.061 202.244 208.122 202.293C206.838 202.392 205.603 204.368 205.306 205.504C205.306 205.553 205.208 206.196 205.158 206.69C205.158 206.393 205.109 206.146 205.109 205.85C205.059 204.862 205.059 203.973 205.059 203.133C205.059 202.688 205.109 202.244 205.109 201.898C205.455 201.601 206.887 200.465 207.332 199.675C207.727 198.884 208.023 197.798 207.628 196.958C207.233 196.118 206.245 195.723 205.455 196.217C204.318 196.908 204.17 199.23 204.467 200.366C204.467 200.465 205.01 201.947 205.059 201.947C205.01 202.342 205.01 202.738 205.01 203.133C204.961 203.923 204.961 204.862 205.01 205.85C205.059 206.838 205.109 207.925 205.306 209.061C205.504 210.197 205.702 211.383 206.146 212.568V212.618C205.899 212.321 205.257 211.481 205.208 211.383C204.368 210.543 202.342 209.407 201.157 209.999C200.317 210.444 200.119 211.481 200.613 212.222C200.959 213.161 202.046 213.507 202.935 213.606Z" fill="#6376FD"/>
<path d="M224.918 206.047C224.918 206.047 225.215 204.516 225.264 204.417C225.363 203.232 224.819 200.959 223.634 200.465C222.745 200.119 221.855 200.663 221.608 201.552C221.361 202.441 221.806 203.479 222.349 204.17C222.893 204.911 224.918 206.047 224.918 206.047Z" fill="#6376FD"/>
<path d="M114.707 94.7986L121.326 96.1818L123.549 98.5036L126.513 98.9482L127.452 101.715L126.76 103.641L124.735 104.53L119.844 103.74L119.696 103.147L122.018 101.517L120.437 98.553L116.041 97.9602L113.719 95.9842L114.707 94.7986Z" fill="#6376FD" stroke="#263238" stroke-miterlimit="10" stroke-linecap="round" stroke-linejoin="round"/>
<path d="M167.911 155.709L162.674 154.82L156.351 154.029L151.707 155.067L147.163 155.116L142.618 157.24L139.95 157.981L138.32 158.327L135.554 160.846L132.837 162.724L128.242 161.093L128.341 156.647L125.575 156.153L122.561 156.796L121.82 155.561L121.524 152.794L120.141 151.51L118.115 152.3L117.868 153.93L115.349 154.671L112.484 152.448L110.804 149.04L112.138 144.347L116.535 143.705L117.967 144.495L119.746 144.1L121.672 142.272L123.747 142.42L127.501 146.471L128.539 146.076L127.452 142.667L126.168 141.086L125.822 138.172L130.861 134.516L130.367 128.786L132.343 126.316L133.528 122.413L134.961 121.771L137.925 118.758L137.826 117.523L135.455 118.214L134.714 117.127L133.084 117.473L130.663 118.659L131.453 116.436L136.393 113.768L137.283 112.138L140.098 114.954L141.729 115.991L143.705 114.904L142.371 113.175L138.715 111.644L134.22 108.384L129.922 106.655L126.168 106.852L123.945 105.469L121.425 105.42L121.277 106.062L121.919 110.458L122.858 111.842L122.561 116.93L119.005 115.201V112.978L115.497 112.187L113.768 110.854L113.669 106.951L117.325 102.851L116.831 99.1951L115.201 99.6891L113.867 98.5529L112.928 96.3793L111.792 96.5275L111.743 99.0469L110.162 99.6891L108.235 94.6009L106.852 94.1069L104.53 93.6623L102.406 95.3913L106.062 97.5649L107.247 99.9855L100.924 97.1203L96.2806 93.9093L95.095 89.9079L90.9454 89.5621L88.3766 92.1803C88.3766 92.1803 87.0922 93.4153 86.4006 93.8599C85.709 94.3045 82.9426 95.2431 82.9426 95.2431L82.8932 97.9107L79.4846 98.8493L80.1268 100.43L85.8572 100.084L89.414 102.604L90.5996 107.84L90.0068 112.879L91.39 117.77L88.8212 126.069L90.3526 137.233L93.119 143.211L96.1324 147.558L98.4542 147.36L97.1698 145.137L95.589 143.606L94.107 140.494L95.3914 139.901L98.7012 144.841L101.27 149.287L102.159 153.189L105.765 156.005L111.693 158.623L119.943 158.969L122.858 160.698L125.18 162.674L128.242 163.712L131.75 163.86L135.01 162.971C135.01 162.971 135.208 164.502 135.356 165.243C135.504 165.984 133.973 168.997 133.973 168.997L132.985 172.357L134.911 175.37L138.518 175.963L144.248 179.717L146.57 180.162L147.064 182.434L147.558 183.422C159.068 178.828 168.701 171.171 175.716 161.637L175.568 160.55L177.988 152.3L175.716 151.362L167.911 155.709Z" fill="#6376FD" stroke="#263238" stroke-miterlimit="10" stroke-linecap="round" stroke-linejoin="round"/>
<path d="M170.381 92.9708L168.108 90.5008L165.292 87.685L163.712 83.3378L166.527 83.1896L166.33 81.6582L164.354 81.9546L165.836 80.8184L167.417 79.3858L167.071 77.9038L164.749 75.8784L163.662 72.7168C148.941 61.1078 129.28 55.9702 109.569 60.3668C100.578 62.3428 92.4768 66.1466 85.5114 71.2348L89.5128 72.9144L88.0308 76.076L85.1656 77.2616L85.7584 81.3618L84.6716 82.1028L83.5354 84.0788L84.2764 86.7464L86.8946 86.4994L86.4006 89.2658L88.9694 88.7224L92.0816 82.2016L91.9828 79.6822L96.1324 78.4472L96.7746 76.4218L101.023 74.9892L100.924 72.3216L104.036 71.4818C104.036 71.4818 106.012 69.8022 106.457 69.7034C106.902 69.6046 109.174 69.901 109.174 69.901L111.842 71.1854L115.003 70.4938L117.325 68.2214L120.832 67.7768C120.832 67.7768 121.87 68.172 122.611 68.0238C123.352 67.8756 125.377 66.2948 125.377 66.2948L130.317 68.0238L132.441 68.9624L132.935 71.2348L135.257 71.0372L135.702 69.5058L137.875 69.9504L137.974 71.1854L133.726 73.4084L136.986 76.1254L143.062 77.9038L145.977 80.4232L149.336 79.9786L149.731 78.299L150.868 77.7556L146.323 75.6314L143.853 75.8784L145.681 74.841L143.309 72.6674L145.829 71.9264L149.534 73.0132L151.065 76.4712L153.14 78.052L155.462 82.1028L159.315 83.7824L160.402 88.7224L164.354 90.2044L164.551 91.884V93.9588L166.033 96.4782L166.626 97.7626L169.294 97.6638L169.936 94.848L170.381 92.9708Z" fill="#6376FD" stroke="#263238" stroke-miterlimit="10" stroke-linecap="round" stroke-linejoin="round"/>
<path d="M168.948 77.4592L169.146 78.299L168.948 80.8678L169.887 82.8438L171.665 83.0908L172.307 85.956L170.331 85.6102L171.665 93.8106L170.578 97.5156L172.702 101.468L175.074 102.851L176.852 110.952L180.211 116.831L183.373 121.178L187.028 121.326L187.572 118.066L187.967 117.572C187.72 114.904 187.275 112.286 186.732 109.619C183.867 96.8734 177.544 85.9066 168.948 77.4592Z" fill="#6376FD" stroke="#263238" stroke-miterlimit="10" stroke-linecap="round" stroke-linejoin="round"/>
<path d="M134.072 84.1775L123.204 82.0533L118.906 83.1895L118.461 86.2523L116.238 84.7209L113.126 86.2029L113.916 91.1923L117.029 92.5755L118.362 89.2657L121.129 90.9947L126.662 94.0575L128.539 98.2071L133.528 102.258L139.604 99.8373L138.962 97.6143L137.036 95.3419L135.405 89.4139L136.344 86.5487L134.072 84.1775Z" fill="#6376FD" stroke="#263238" stroke-miterlimit="10" stroke-linecap="round" stroke-linejoin="round"/>
<path d="M142.914 85.709L140.543 85.6102L138.962 87.685L140.988 91.7852L142.914 91.39V85.709Z" fill="#6376FD" stroke="#263238" stroke-miterlimit="10" stroke-linecap="round" stroke-linejoin="round"/>
<path d="M157.487 85.462L151.806 83.8812L150.374 82.3004L149.237 83.0414L150.966 85.8078L152.745 89.5128L155.165 89.908L155.511 89.2164L153.634 87.2404L157.882 87.8826L157.487 85.462Z" fill="#6376FD" stroke="#263238" stroke-miterlimit="10" stroke-linecap="round" stroke-linejoin="round"/>
<path d="M125.723 149.336L125.278 150.077L130.07 150.423L132.343 152.152L135.257 151.806L135.949 149.929L132.343 150.077L125.723 149.336Z" fill="white" stroke="#263238" stroke-miterlimit="10" stroke-linecap="round" stroke-linejoin="round"/>
<path d="M139.703 149.237L136.739 150.818L137.48 151.954L141.383 151.065L141.877 149.682L140.543 150.127L139.703 149.237Z" fill="white" stroke="#263238" stroke-miterlimit="10" stroke-linecap="round" stroke-linejoin="round"/>
<path d="M123.5 188.214C159.241 188.214 188.214 159.241 188.214 123.5C188.214 87.7595 159.241 58.786 123.5 58.786C87.7595 58.786 58.786 87.7595 58.786 123.5C58.786 159.241 87.7595 188.214 123.5 188.214Z" stroke="#263238" stroke-miterlimit="10" stroke-linecap="round" stroke-linejoin="round"/>
<path d="M123.5 188.214C145.899 188.214 164.057 159.241 164.057 123.5C164.057 87.7595 145.899 58.786 123.5 58.786C101.101 58.786 82.9426 87.7595 82.9426 123.5C82.9426 159.241 101.101 188.214 123.5 188.214Z" stroke="#263238" stroke-miterlimit="10" stroke-linecap="round" stroke-linejoin="round"/>
<path d="M123.5 188.214C131.658 188.214 138.271 159.241 138.271 123.5C138.271 87.7595 131.658 58.786 123.5 58.786C115.342 58.786 108.729 87.7595 108.729 123.5C108.729 159.241 115.342 188.214 123.5 188.214Z" stroke="#263238" stroke-miterlimit="10" stroke-linecap="round" stroke-linejoin="round"/>
<path d="M87.9814 69.8022H159.315" stroke="#263238" stroke-miterlimit="10" stroke-linecap="round" stroke-linejoin="round"/>
<path d="M64.0718 98.0096H182.731" stroke="#263238" stroke-miterlimit="10" stroke-linecap="round" stroke-linejoin="round"/>
<path d="M87.9814 177.099H159.315" stroke="#263238" stroke-miterlimit="10" stroke-linecap="round" stroke-linejoin="round"/>
<path d="M64.0718 148.892H182.731" stroke="#263238" stroke-miterlimit="10" stroke-linecap="round" stroke-linejoin="round"/>
<path d="M188.214 123.5H58.786" stroke="#263238" stroke-miterlimit="10" stroke-linecap="round" stroke-linejoin="round"/>
<path d="M234.403 233.366H12.6464" stroke="#263238" stroke-miterlimit="10" stroke-linecap="round" stroke-linejoin="round"/>
<path d="M193.248 52.2476C203.05 42.445 203.05 26.5518 193.248 16.7492C183.445 6.94661 167.552 6.94661 157.749 16.7492C147.947 26.5518 147.947 42.445 157.749 52.2476C167.552 62.0502 183.445 62.0502 193.248 52.2476Z" fill="white" stroke="#6376FD" stroke-width="3" stroke-miterlimit="10" stroke-linecap="round" stroke-linejoin="round"/>
<path d="M175.016 18C168.183 18 162 23.2391 162 31.3418C162 36.5158 165.986 42.601 173.943 49.5973C174.561 50.1342 175.488 50.1342 176.107 49.5973C184.047 42.601 188.033 36.5158 188.033 31.3418C188.033 23.2391 181.85 18 175.016 18ZM175.033 40.7787C174.073 40.7787 173.324 40.014 173.324 39.0703C173.324 38.1103 174.089 37.3782 175.033 37.3782C175.993 37.3782 176.725 38.1103 176.725 39.0703C176.725 40.014 176.009 40.7787 175.033 40.7787ZM179.117 30.7398C178.092 32.253 177.115 32.7085 176.578 33.6848C176.448 33.9125 176.367 34.1078 176.318 34.482C176.237 35.1166 175.732 35.5884 175.098 35.5884H175.049C174.333 35.5884 173.764 34.9701 173.829 34.2542C173.877 33.8149 173.975 33.3268 174.235 32.8875C174.903 31.6998 176.155 31.0001 176.888 29.9588C177.668 28.8524 177.229 26.8023 175.033 26.8023C174.04 26.8023 173.389 27.323 172.983 27.9413C172.673 28.4131 172.055 28.5758 171.535 28.348C170.851 28.0552 170.558 27.2091 170.981 26.6071C171.811 25.4031 173.194 24.5082 175.016 24.5082C177.018 24.5082 178.401 25.4193 179.1 26.5583C179.686 27.5508 180.044 29.3731 179.117 30.7398Z" fill="black"/>
<path d="M154.273 47.6372L194.978 19.8221" stroke="#6376FD" stroke-width="3" stroke-miterlimit="10" stroke-linecap="round" stroke-linejoin="round"/>
</g>
<defs>
<clipPath id="clip0_366_26">
<rect width="247" height="247" fill="white"/>
</clipPath>
</defs>
</svg>
