<svg width="22" height="28" viewBox="0 0 22 28" fill="none" xmlns="http://www.w3.org/2000/svg">
<path d="M20 0H10.3125H2C0.89543 0 0 0.895431 0 2V26.3688C0 27.1153 0.788384 27.5986 1.45368 27.2599L10.0926 22.8619C10.6627 22.5717 11.3373 22.5717 11.9074 22.8619L20.5463 27.2599C21.2116 27.5986 22 27.1153 22 26.3688V2C22 0.895431 21.1046 0 20 0Z" fill="#929292"/>
<path d="M16.975 10.0998L16.9875 10.0748C16.9874 10.0661 16.9895 10.0575 16.9937 10.0498V10.0311C16.9937 10.0123 17 9.99984 17 9.98109V7.48119C17 7.41489 16.9737 7.35131 16.9268 7.30442C16.8799 7.25754 16.8163 7.2312 16.75 7.2312C16.6837 7.2312 16.6201 7.25754 16.5732 7.30442C16.5264 7.35131 16.5 7.41489 16.5 7.48119V9.38112L14.8126 7.68119C14.0081 6.87788 12.9836 6.33108 11.8685 6.10989C10.7534 5.88869 9.5977 6.00303 8.54754 6.43846C7.49739 6.87389 6.59988 7.61085 5.96844 8.55622C5.33701 9.50159 5 10.6129 5 11.7498C5 12.8866 5.33701 13.998 5.96844 14.9433C6.59988 15.8887 7.49739 16.6257 8.54754 17.0611C9.5977 17.4965 10.7534 17.6109 11.8685 17.3897C12.9836 17.1685 14.0081 16.6217 14.8126 15.8184C14.8574 15.7699 14.8823 15.7063 14.8823 15.6402C14.8823 15.5742 14.8574 15.5106 14.8126 15.4621C14.7893 15.4385 14.7616 15.4197 14.731 15.4069C14.7004 15.3941 14.6676 15.3875 14.6345 15.3875C14.6013 15.3875 14.5685 15.3941 14.5379 15.4069C14.5073 15.4197 14.4796 15.4385 14.4563 15.4621C13.7221 16.1963 12.7867 16.6962 11.7684 16.8987C10.75 17.1013 9.69449 16.9973 8.73524 16.5999C7.776 16.2025 6.95613 15.5297 6.3793 14.6663C5.80247 13.803 5.49458 12.7881 5.49458 11.7498C5.49458 10.7115 5.80247 9.69651 6.3793 8.8332C6.95613 7.96989 7.776 7.29701 8.73524 6.89965C9.69449 6.50229 10.75 6.3983 11.7684 6.60082C12.7867 6.80334 13.7221 7.30328 14.4563 8.03742L16.15 9.7311H14.2564C14.1901 9.7311 14.1265 9.75744 14.0796 9.80432C14.0327 9.85121 14.0064 9.91479 14.0064 9.98109C14.0064 10.0474 14.0327 10.111 14.0796 10.1579C14.1265 10.2047 14.1901 10.2311 14.2564 10.2311H16.85L16.875 10.2186L16.8938 10.2061L16.9313 10.1811L16.9625 10.1436L16.975 10.0998Z" fill="white" stroke="white" stroke-width="0.6"/>
<path d="M11.4311 12.5893V9.58319C11.4311 9.51689 11.4047 9.4533 11.3578 9.40642C11.311 9.35954 11.2474 9.3332 11.1811 9.3332C11.1148 9.3332 11.0512 9.35954 11.0043 9.40642C10.9574 9.4533 10.9311 9.51689 10.9311 9.58319V12.4393L8.45618 13.8643C8.42779 13.881 8.40298 13.9032 8.3832 13.9296C8.36342 13.956 8.34905 13.986 8.34091 14.0179C8.33278 14.0499 8.33105 14.0831 8.33582 14.1157C8.34058 14.1484 8.35175 14.1797 8.36869 14.208C8.3898 14.2458 8.42061 14.2774 8.45796 14.2993C8.49531 14.3213 8.53784 14.3329 8.58118 14.333C8.62467 14.3322 8.66741 14.3215 8.70617 14.3018L11.3061 12.8018H11.3123L11.3373 12.7831L11.3498 12.7706L11.3686 12.7518L11.3873 12.7331C11.3873 12.7268 11.3936 12.7206 11.3998 12.7143C11.4061 12.7081 11.4061 12.7018 11.4061 12.6956L11.4186 12.6706C11.4186 12.6643 11.4248 12.6518 11.4248 12.6456V12.6268C11.4312 12.6154 11.4334 12.6022 11.4311 12.5893Z" fill="white" stroke="white" stroke-width="0.6"/>
</svg>
