<svg width="55" height="55" viewBox="0 0 55 55" fill="none" xmlns="http://www.w3.org/2000/svg">
<rect width="55" height="55" rx="5" fill="#FFD934"/>
<path d="M22.1095 31.7374H21.0858V32.2828C21.0858 35.9112 21.0881 39.5396 21.0798 43.168C21.0798 43.4541 21.0489 43.7577 20.9466 44.0216C20.6934 44.6803 19.9764 45.0808 19.3188 44.9863C18.5483 44.8753 17.9978 44.3089 17.9312 43.5533C17.9169 43.3945 17.9252 43.2334 17.9252 43.0722C17.9252 36.4274 17.9252 29.7825 17.9252 23.1365C17.9252 22.9613 17.9526 22.778 17.905 22.6156C17.867 22.4848 17.7314 22.2828 17.6458 22.2863C17.5043 22.291 17.301 22.4066 17.2451 22.5292C17.1512 22.7336 17.1369 22.9788 17.1179 23.2101C16.9395 25.3436 16.7754 27.4796 16.5875 29.6132C16.5293 30.2683 15.9847 30.7553 15.3569 30.7845C14.735 30.8137 14.1678 30.3886 14.0322 29.7732C13.9954 29.605 13.9942 29.424 14.0085 29.2523C14.1321 27.7575 14.2629 26.2627 14.3925 24.7667C14.4663 23.9107 14.5531 23.0547 14.6161 22.1976C14.7814 19.967 16.6125 18.2223 18.8884 18.1826C20.5638 18.1534 22.2415 18.1733 23.9169 18.1733C26.2487 18.1733 27.8527 19.3469 28.4056 21.5739C28.9003 23.5662 29.301 25.5807 29.7302 27.5882C29.8563 28.1803 29.3628 28.8541 28.7338 29.0024C28.0846 29.1566 27.3402 28.7537 27.1749 28.0845C26.9336 27.1094 26.754 26.1202 26.5519 25.1358C26.3985 24.3942 26.251 23.6515 26.0988 22.9099C26.0869 22.8527 26.0715 22.7966 26.0536 22.7418C25.9716 22.4919 25.905 22.18 25.5614 22.2221C25.2189 22.2641 25.2927 22.5876 25.2748 22.8235C25.2629 22.9823 25.2712 23.1435 25.2712 23.3046C25.2712 29.9355 25.2712 36.5652 25.2712 43.196C25.2712 44.1594 24.7064 44.8578 23.8789 44.9372C22.8634 45.0341 22.1131 44.3323 22.1119 43.2672C22.1083 39.6096 22.1107 35.9521 22.1107 32.2945C22.1107 32.1216 22.1107 31.95 22.1107 31.7374H22.1095Z" fill="white"/>
<path d="M35.2411 38.3392H34.4988C34.4988 38.5129 34.4988 38.6809 34.4988 38.8489C34.4988 40.4671 34.507 42.0854 34.4941 43.7037C34.4883 44.4474 33.933 45.0057 33.2492 45C32.5724 44.9942 32.0534 44.4613 32.0183 43.7315C32.0125 43.6018 32.016 43.472 32.016 43.3411C32.016 40.3061 32.0078 37.2723 32.0253 34.2373C32.0277 33.8469 31.9271 33.6743 31.5379 33.5353C30.2287 33.0685 29.2959 32.1672 28.7126 30.915C28.4297 30.3068 28.6249 29.6581 29.1638 29.3766C29.6875 29.1021 30.3502 29.2805 30.6682 29.8481C31.3637 31.0876 32.4438 31.6853 33.8337 31.7629C34.7934 31.8162 35.7566 31.829 36.7175 31.8394C37.9332 31.8521 38.8274 32.3699 39.4352 33.4171C40.1471 34.6439 40.3026 35.9737 40.236 37.3499C40.2126 37.8341 39.7918 38.2199 39.3183 38.228C38.8706 38.2349 38.4522 37.8781 38.3949 37.4055C38.3247 36.8321 38.3095 36.2517 38.216 35.683C38.1541 35.3065 37.9939 34.9451 37.877 34.5767L37.7099 34.608C37.7029 34.7701 37.6888 34.9323 37.6888 35.0945C37.6877 37.9117 37.6888 40.7301 37.6865 43.5473C37.6865 44.2887 37.247 44.8366 36.6099 44.9119C35.8665 45.0011 35.2504 44.459 35.2458 43.6805C35.2364 42.0623 35.2423 40.444 35.2423 38.8257C35.2423 38.6693 35.2423 38.5141 35.2423 38.3357L35.2411 38.3392Z" fill="white"/>
<path d="M18.0834 13.4751C18.0928 11.5212 19.6574 9.98357 21.6182 10.0001C23.5399 10.0167 25.0997 11.5981 25.0832 13.5142C25.0666 15.4516 23.4701 17.0199 21.5354 16.9998C19.6136 16.9797 18.0739 15.4078 18.0834 13.4751Z" fill="white"/>
<path d="M34.6868 25.1679C36.1565 25.1631 37.3365 26.466 37.3333 28.0887C37.3301 29.6983 36.1662 30.9952 34.7191 31C33.2418 31.006 32.0812 29.7198 32.0833 28.0792C32.0855 26.4565 33.2343 25.1715 34.6868 25.1667V25.1679Z" fill="white"/>
</svg>
