<svg width="20" height="20" viewBox="0 0 20 20" fill="none" xmlns="http://www.w3.org/2000/svg">
<path d="M0 0.78125C0 0.35 0.350685 0 0.782779 0H9.76386C10.196 0 10.5466 0.35 10.5466 0.78125V4.6974H15.225V7.09323C14.7752 7.12552 14.3301 7.11406 13.9022 7.19583C12.1748 7.52656 10.913 9.27187 11.1739 11.0036C11.259 11.5682 11.4646 12.1203 11.6608 12.6609C11.9713 13.5146 12.1889 14.3839 12.2541 15.3141H8.20248V19.2182C8.20248 19.6495 7.85179 19.9995 7.4197 19.9995H0.782779C0.350685 19.9995 0 19.6495 0 19.2182" fill="#6376FD"/>
<path d="M4.09441 14.1411C3.13264 14.1437 2.34516 14.9333 2.34412 15.8953C2.34307 16.8651 3.13786 17.6588 4.10798 17.6557C5.06975 17.6526 5.85723 16.8635 5.85827 15.901C5.85932 14.9302 5.0661 14.138 4.09441 14.1411Z" fill="#6376FD"/>
<path d="M9.35893 9.46302H2.35254V10.6109H9.35893V9.46302Z" fill="#6376FD"/>
<path d="M7.01578 7.11927H2.35303V8.2677H7.01578V7.11927Z" fill="#6376FD"/>
<path d="M9.37512 19.2188V16.4844H20V19.2188C20 19.65 19.6494 20 19.2173 20H10.1579C9.72581 20 9.37512 19.65 9.37512 19.2188Z" fill="#6376FD"/>
<path d="M15.8325 15.3052H13.4554C13.3917 14.8698 13.3667 14.4307 13.2571 14.0135C13.0661 13.2859 12.8224 12.5724 12.6032 11.8526C12.5109 11.5484 12.3929 11.2484 12.3397 10.937C12.1315 9.72084 13.0186 8.51354 14.2445 8.31771C15.5366 8.11094 16.7488 8.96198 16.9576 10.2068C17.04 10.7005 16.9398 11.1609 16.7843 11.6224C16.5443 12.3359 16.2865 13.0458 16.0908 13.7719C15.9577 14.2646 15.9175 14.7823 15.833 15.3052H15.8325Z" fill="#6376FD"/>
<path d="M14.8217 3.50573H11.7297V0.413544C12.7583 1.44219 13.7926 2.47604 14.8217 3.50521V3.50573Z" fill="#6376FD"/>
<path d="M4.65805 15.7182C4.78277 16.1083 4.47958 16.4818 4.10384 16.4833C3.7803 16.4849 3.50945 16.2094 3.51624 15.8859C3.52407 15.5078 3.90815 15.2089 4.2985 15.3474C4.46862 15.4078 4.60326 15.5464 4.65805 15.7182Z" fill="#6376FD"/>
</svg>
