<svg width="26" height="25" viewBox="0 0 26 25" fill="none" xmlns="http://www.w3.org/2000/svg">
<path d="M0 7.75157H6.15064V1.74277H8.42988C7.71112 3.32665 7.73543 4.8839 8.54402 6.44907C8.47995 6.49872 8.41147 6.55269 8.34151 6.60522C6.00851 8.35749 4.95615 10.6811 5.36561 13.5143C5.7839 16.4043 7.50861 18.3623 10.3011 19.4065C10.5051 19.4828 10.5788 19.5634 10.5758 19.7829C10.5618 20.8515 10.5692 21.9194 10.5692 22.988V23.2622H0V7.75157ZM4.38174 8.61943C3.51644 8.61943 2.68207 8.61799 1.84696 8.61943C1.21658 8.62087 0.863829 8.96844 0.863092 9.58947C0.861619 10.6207 0.863092 11.6526 0.863092 12.6838C0.863092 12.7608 0.873402 12.8378 0.877821 12.9069H1.7549V9.47578H4.38174V8.61871V8.61943ZM5.2846 19.821V22.39H6.15726C6.15726 21.5524 6.15874 20.7363 6.15726 19.9203C6.15579 19.3129 5.80378 18.9661 5.18665 18.9647C4.41561 18.9625 3.64458 18.9639 2.87354 18.9647C2.79474 18.9647 2.71668 18.9747 2.64304 18.9798V19.821H5.28533H5.2846ZM0.874875 14.6527C1.49347 14.6527 2.08041 14.6635 2.6666 14.6491C3.13202 14.6376 3.49066 14.2727 3.50613 13.8143C3.51717 13.492 3.50907 13.1689 3.50907 12.8465C3.50907 12.5903 3.50907 12.3348 3.50907 12.0815H2.62315V13.8H0.874875V14.6527ZM1.73944 18.0932H4.37069V17.2419C3.46783 17.2419 2.58707 17.2347 1.7063 17.2448C1.31158 17.2491 0.957355 17.5139 0.901386 17.8946C0.850573 18.2407 0.89034 18.5998 0.89034 18.9503H1.73944V18.0925V18.0932ZM0.875611 16.3596H4.37069V15.5299H0.876348V16.3596H0.875611ZM8.80177 20.7011V21.5596H7.05276V22.3972H9.66707V20.7018H8.80177V20.7011ZM3.51791 22.3987V21.5373H4.37806V20.6932C4.04519 20.6932 3.72558 20.6752 3.40892 20.6975C3.01788 20.7248 2.67617 21.0451 2.64156 21.4265C2.61284 21.7438 2.63567 22.0662 2.63567 22.3987H3.51791V22.3987ZM2.64009 11.1913H4.37511V10.3623H2.64009V11.1913ZM7.90996 18.9783H7.0557V20.6694H7.90996V18.9783ZM5.29049 17.2534V18.0838H6.13591V17.2534H5.29049ZM1.73134 20.6781V19.8419H0.880766V20.6781H1.73208H1.73134ZM1.72766 22.408V21.5697H0.885185V22.408H1.72839H1.72766Z" fill="white"/>
<path d="M14.9899 23.2564V19.5216C20.9755 17.6952 22.1752 9.8622 17.0143 6.43754C17.8133 4.899 17.8435 3.33311 17.1181 1.737H19.3819V7.74293H25.5517V17.2296H19.4077V23.2564H14.9906H14.9899ZM18.4894 22.4015V18.9798H17.6211V21.5646H15.8802V22.4023H18.4894V22.4015ZM22.036 9.47145H24.6658V8.61942C23.771 8.61942 22.8998 8.61222 22.0279 8.6223C21.533 8.62806 21.1707 8.99722 21.1611 9.48656C21.1538 9.87228 21.1597 10.258 21.1589 10.643C21.1589 10.8272 21.1589 11.0107 21.1589 11.1906H22.0367V9.47145H22.036ZM22.9366 16.3668V15.5069H24.6709V14.657C24.0501 14.657 23.4455 14.6426 22.8424 14.662C22.4366 14.675 22.0875 15.0046 22.0529 15.3989C22.025 15.7163 22.047 16.0372 22.047 16.3675H22.9359L22.9366 16.3668ZM23.8012 12.0477H24.6857C24.6857 11.7332 24.6982 11.4382 24.6827 11.1438C24.6621 10.756 24.3638 10.4091 23.9706 10.3652C23.6311 10.3271 23.2835 10.3573 22.9448 10.3573V11.2144H23.8012V12.0477V12.0477ZM22.9219 12.0858H22.0279V12.9386H21.1759V13.7884C21.5028 13.7884 21.8136 13.8043 22.1229 13.7848C22.5603 13.7561 22.902 13.3998 22.9197 12.9666C22.9315 12.6809 22.9219 12.3945 22.9219 12.0865V12.0858ZM23.8189 13.7769H24.6702V12.9501H23.8189V13.7769ZM21.1368 16.3683V15.5299H20.2936V16.3683H21.1368ZM16.7337 20.6781V19.8419H15.8824V20.6781H16.7337Z" fill="white"/>
<path d="M9.82018 8.78061C10.4432 9.93056 11.0596 11.0618 11.6694 12.1959C11.824 12.483 12.0206 12.7191 12.3373 12.8436C12.9191 13.0717 13.5237 12.8436 13.844 12.2585C14.4287 11.192 15.0046 10.1213 15.5849 9.05191C15.6321 8.96555 15.6814 8.88064 15.73 8.795C16.8877 9.52541 18.0129 11.431 17.5063 13.5646C17.0188 15.6184 15.1453 17.1526 13.02 17.2354C10.8033 17.3217 8.82085 15.984 8.15365 13.946C7.45846 11.8224 8.4114 9.76073 9.82018 8.78061V8.78061ZM12.788 16.3589C14.9811 16.415 16.8089 14.503 16.722 12.5118H15.8714C15.8368 13.3329 15.5518 14.0432 14.9641 14.621C14.3698 15.2061 13.6349 15.4874 12.788 15.5227V16.3582V16.3589Z" fill="white"/>
<path d="M8.80458 3.98797C8.80384 1.68447 10.6007 -0.0541224 12.9256 0.00128814C14.9442 0.0495025 16.6623 1.7147 16.7455 3.68933C16.7823 4.55359 16.6019 5.35524 16.1799 6.1202C15.1489 7.99048 14.1415 9.873 13.1193 11.7483C13.0619 11.8541 12.9816 11.9757 12.8792 12.0239C12.662 12.1261 12.5456 11.9714 12.4536 11.8009C11.8445 10.6754 11.2348 9.55061 10.625 8.42585C10.1913 7.62563 9.76267 6.82326 9.32302 6.02592C8.97175 5.38834 8.78764 4.71334 8.80384 3.98797H8.80458ZM12.7813 6.8945C14.4787 6.89162 15.8654 5.53083 15.8625 3.87211C15.8595 2.21339 14.4677 0.859072 12.7688 0.86195C11.0713 0.864829 9.68461 2.22491 9.68755 3.88434C9.6905 5.54162 11.0838 6.8981 12.7813 6.89522V6.8945ZM13.2298 7.76812V8.60431H14.0811V7.76812H13.2298ZM12.3122 8.61007V7.77172H11.469V8.61007H12.3122Z" fill="white"/>
<path d="M8.98586 7.2428C9.11842 7.48676 9.2495 7.72927 9.35334 7.9214C8.9785 8.31216 8.59335 8.6511 8.28405 9.04617C6.94081 10.7617 6.64329 12.6594 7.49533 14.6477C8.34075 16.6216 9.91081 17.7866 12.0936 18.0493C15.6454 18.476 18.6794 15.6976 18.4998 12.2024C18.4151 10.5574 17.6816 9.20592 16.373 8.16463C16.2036 8.02935 16.1616 7.9322 16.2853 7.75157C16.3958 7.5911 16.4761 7.40976 16.5703 7.23633C18.692 8.61224 19.9549 11.4101 19.1515 14.2253C18.3304 17.1059 15.6557 19.0208 12.5671 18.9618C9.64717 18.9064 7.03065 16.8303 6.34062 14.0144C5.63807 11.1446 7.03139 8.47119 8.98586 7.2428V7.2428Z" fill="white"/>
<path d="M0 1.73557H5.26103V6.87435H0V1.73557ZM0.874139 6.01369H4.37953V2.60055H0.874139V6.01297V6.01369Z" fill="white"/>
<path d="M20.2885 6.87651V1.737H25.5487V6.87651H20.2885ZM24.6753 2.60414H21.1803V6.01944H24.6753V2.60414V2.60414Z" fill="white"/>
<path d="M20.2958 18.1141H25.5553V23.2529H20.2958V18.1141ZM21.1707 22.3936H24.6657V18.9791H21.1707V22.3936Z" fill="white"/>
<path d="M11.4558 19.7735H14.0833C14.0833 19.7735 14.0981 19.8246 14.0981 19.8742C14.0995 21.1494 14.1025 22.4238 14.0973 23.699C14.0951 24.2704 13.7321 24.7554 13.1989 24.9303C12.6782 25.1015 12.0906 24.9547 11.7636 24.5179C11.6134 24.3172 11.4749 24.0516 11.4698 23.8127C11.4418 22.4584 11.4565 21.1041 11.4565 19.7735H11.4558Z" fill="white"/>
<path d="M12.7763 1.72403C13.9943 1.72403 14.9841 2.69407 14.9804 3.88576C14.9775 5.07457 13.9803 6.03886 12.7608 6.0331C11.5568 6.02734 10.5729 5.06233 10.5699 3.88432C10.5677 2.69335 11.5575 1.72403 12.7755 1.72403H12.7763Z" fill="white"/>
<path d="M1.76013 3.45905H3.49073V5.15446H1.76013V3.45905V3.45905Z" fill="white"/>
<path d="M22.0552 3.45905H23.7858V5.15446H22.0552V3.45905V3.45905Z" fill="white"/>
<path d="M22.0603 19.8383H23.7909V21.5286H22.0603V19.8383Z" fill="white"/>
</svg>
