<svg width="26" height="19" viewBox="0 0 26 19" fill="none" xmlns="http://www.w3.org/2000/svg">
<path d="M10.3 15.1C10.6 13.8 9.60007 12.6 8.20007 12.6C8.20007 12 8.0001 11.5 7.6001 11.1C7.2001 10.7 6.7001 10.5 6.1001 10.6C6.1001 9.79998 5.8001 9.19999 5.1001 8.79999C4.4001 8.39999 3.7001 8.5 3.1001 9C3.0001 8.8 2.8001 8.7 2.6001 8.5C3.0001 7.9 3.50009 7.29999 3.90009 6.79999C5.10009 5.29999 6.20009 3.79999 7.40009 2.29999C7.50009 2.19999 7.60005 2.09998 7.80005 2.09998C8.60005 2.09998 9.3001 2 10.1001 2C10.9001 1.9 11.7001 1.79999 12.5001 1.79999C13.0001 1.79999 13.6001 1.79998 14.1001 2.09998C13.6001 2.29998 13.1001 2.49998 12.6001 2.59998C12.0001 2.79998 11.4 3.09999 10.8 3.29999C10.4 3.39999 10.0001 3.5 9.70007 3.5C8.90007 3.6 8.5001 4.00001 8.6001 4.70001C8.6001 5.10001 8.8001 5.49999 9.1001 5.79999C9.8001 6.59999 10.7001 6.69998 11.7001 6.59998C12.4001 6.49998 13.1 6.39999 13.8 6.29999C14.2 6.19999 14.6001 6.39998 14.9001 6.59998C15.4001 6.99998 15.9001 7.39999 16.5001 7.79999C17.9001 8.99999 19.4 10.1 20.8 11.3C21.3 11.7 21.4001 12.1 21.2001 12.6C21.0001 13.1 20.6001 13.5 20.0001 13.5C19.8001 13.5 19.6001 13.4 19.5001 13.3C18.7001 12.7 17.9001 12 17.1001 11.4C17.0001 11.3 16.9001 11.2 16.9001 11.2C16.8001 11.2 16.6001 11.2 16.5001 11.3C16.4001 11.5 16.4001 11.6 16.6001 11.8C17.1001 12.2 17.7001 12.7 18.2001 13.1C18.6001 13.4 18.8001 13.8 18.6001 14.3C18.4001 14.8 18.0001 15.2 17.5001 15.1C17.3001 15.1 17.1001 15 16.9001 14.8C16.4001 14.4 15.9 14 15.3 13.6C15 13.4 14.9001 13.4 14.7001 13.6C14.6001 13.8 14.6 14 14.8 14.2C15.2 14.5 15.5001 14.8 15.9001 15C16.3001 15.3 16.4001 15.8 16.2001 16.3C15.9001 16.8 15.4001 17.1 14.9001 17C14.8001 17 14.7001 16.9 14.6001 16.9C14.2001 16.6 13.9001 16.3 13.5001 16C13.2001 15.8 13.0001 15.8 12.9001 16C12.7001 16.2 12.8001 16.4 13.1001 16.6C13.4001 16.8 13.6001 17 13.9001 17.2C14.1001 17.4 14.2001 17.5 14.1001 17.8C14.0001 18.2 13.7 18.6 13.3 18.7C13.1 18.7 12.9001 18.7 12.7001 18.6C12.6001 18.6 12.5001 18.5 12.4001 18.4C12.2001 18.2 12 18.1 11.8 17.9C12.1 16.5 11.7 15.5 10.3 15.1Z" fill="white"/>
<path d="M23.5 8.39996C22.8 9.29996 21.9 9.89999 20.8 10.3C20.7 10.3 20.6 10.3 20.5 10.2C19.1 9.00001 17.6 7.90001 16.2 6.70001C15.9 6.40001 15.6 6.19996 15.2 5.89996C14.6 5.39996 13.8 5.29996 13 5.39996C12.3 5.49996 11.7 5.60001 11 5.70001C10.4 5.80001 9.90006 5.60001 9.40006 5.20001C9.30006 5.10001 9.20007 4.99996 9.10007 4.89996C8.80007 4.39996 9.00003 4.09998 9.50003 4.09998C10.6 3.99998 11.6001 3.49998 12.6001 3.09998C13.7001 2.69998 14.8 2.49996 16 2.39996C16.8 2.39996 17.7 2.29996 18.5 1.89996C20.3 4.09996 21.9 6.19996 23.5 8.39996Z" fill="white"/>
<path d="M7.00005 1.49999C5.30005 3.69999 3.70009 5.79995 2.10009 7.89995C1.70009 7.59995 1.30005 7.29995 1.00005 6.89995C0.600052 6.49995 0.500039 5.99999 0.800039 5.49999C0.900039 5.29999 1.00006 4.99998 1.20006 4.79998C2.10006 3.59998 3.00008 2.49998 3.90008 1.29998C4.10008 1.09998 4.20008 0.899975 4.40008 0.799975C4.90008 0.399975 5.30008 0.4 5.90008 0.7C6.20008 0.9 6.60005 1.19999 7.00005 1.49999Z" fill="white"/>
<path d="M24.1001 7.99998C22.5001 5.79998 20.9001 3.69998 19.2001 1.49998C19.7001 1.09998 20.1001 0.699983 20.7001 0.499983C21.1001 0.399983 21.5 0.499995 21.8 0.699995C22.1 0.899995 22.3001 1.19998 22.6001 1.49998C23.4001 2.49998 24.2001 3.59996 24.9001 4.59996C25.1001 4.89996 25.3001 5.19998 25.4001 5.49998C25.7001 6.09998 25.6001 6.59996 25.1001 7.09996C24.8001 7.39996 24.4001 7.59998 24.1001 7.99998Z" fill="white"/>
<path d="M3.6001 12.3999C2.8001 12.3999 2.30005 11.8 2.30005 11.1C2.30005 10.9 2.4001 10.6 2.6001 10.5C2.9001 10.1 3.30007 9.69997 3.70007 9.29997C3.80007 9.19997 4.0001 9.09995 4.1001 9.09995C4.6001 8.99995 5.10009 9.39997 5.40009 9.79997C5.60009 10.3 5.60007 10.7 5.20007 11.1C4.90007 11.4 4.60005 11.8 4.30005 12.1C4.00005 12.4 3.7001 12.3999 3.6001 12.3999Z" fill="white"/>
<path d="M5.60012 14.5C4.90012 14.5 4.3001 13.9 4.4001 13.2C4.4001 13 4.50009 12.8 4.70009 12.6C5.00009 12.3 5.30008 12 5.50008 11.7C6.10008 10.9 7.20008 11.4 7.50008 12.1C7.60008 12.5 7.60007 12.9 7.30007 13.2C7.00007 13.5 6.60007 13.9 6.30007 14.2C6.10007 14.4 6.00012 14.5 5.60012 14.5Z" fill="white"/>
<path d="M8.40007 13.3C9.20007 13.4 9.80008 14.1 9.60008 14.8C9.60008 15 9.50007 15.1 9.40007 15.2C9.10007 15.6 8.80007 15.9 8.40007 16.3C8.00007 16.7 7.40007 16.7 6.90007 16.3C6.40007 15.9 6.30006 15.2 6.70006 14.8C7.10006 14.4 7.50007 14 7.90007 13.6C8.10007 13.4 8.30007 13.3 8.40007 13.3Z" fill="white"/>
<path d="M9.90009 18.2C9.40009 18.2 8.90005 17.8 8.80005 17.3C8.80005 17.2 8.80009 17 8.90009 16.9C9.20009 16.6 9.50005 16.2 9.80005 15.9C9.90005 15.8 10.0001 15.8 10.1001 15.8C10.5001 15.9 10.8001 16.1 11.0001 16.5C11.2001 16.8 11.1001 17.1 10.9001 17.4C10.7001 17.6 10.5 17.9 10.3 18.1C10.2 18.1 10.0001 18.1 9.90009 18.2Z" fill="white"/>
</svg>
