<svg width="23" height="23" viewBox="0 0 23 23" fill="none" xmlns="http://www.w3.org/2000/svg">
<path d="M22.8055 12.6C22.8055 12.7 22.8055 12.9 22.8055 13C22.7055 13.2 22.6055 13.3 22.5055 13.5C20.2055 15.9 18.0055 18.3 15.7055 20.6C14.8055 21.5 13.7055 22.1 12.4055 22.4C11.5055 22.6 10.7055 22.5 9.80551 22.5C9.00551 22.5 8.10549 22.3 7.40549 21.9C5.40549 20.8 4.40551 19.1 4.30551 16.9C4.30551 16.3 4.2055 15.6 4.1055 15C3.9055 13.9 3.50547 12.9 3.00547 12C2.30547 10.9 1.70547 9.69998 1.00547 8.59998C0.705466 8.09998 0.805502 7.69999 1.1055 7.29999C1.6055 6.69999 2.50549 6.8 2.90549 7.5C3.40549 8.3 3.90549 9.19998 4.40549 10.1C4.90549 10.9 5.30551 11.7 5.80551 12.5C5.90551 12.7 6.10551 12.8 6.30551 12.7C6.50551 12.6 6.60547 12.5 6.50547 12.2C6.50547 12.1 6.50549 12 6.40549 12C5.70549 9.4 5.00551 6.69998 4.30551 4.09998C4.20551 3.89998 4.20551 3.59996 4.30551 3.39996C4.40551 2.79996 4.90547 2.39996 5.50547 2.39996C6.10547 2.39996 6.60551 2.79996 6.80551 3.39996C7.30551 5.09996 7.70548 6.79998 8.20548 8.59998C8.40548 9.49998 8.70549 10.4 8.90549 11.4V11.5C9.00549 11.7 9.10551 11.8 9.30551 11.8C9.50551 11.8 9.6055 11.6 9.6055 11.4C9.6055 10.7 9.6055 9.90001 9.6055 9.20001C9.6055 6.80001 9.6055 4.49998 9.6055 2.09998C9.6055 1.39998 9.9055 0.900012 10.6055 0.700012C10.6055 0.700012 10.6055 0.700012 10.7055 0.700012C10.8055 0.700012 11.0055 0.700012 11.1055 0.700012C11.9055 0.900012 12.2055 1.50001 12.2055 2.20001C12.2055 5.30001 12.2055 8.29996 12.2055 11.4C12.2055 11.5 12.2055 11.5 12.2055 11.6C12.2055 11.8 12.3055 12 12.5055 12C12.7055 12 12.8055 11.9 12.9055 11.7C12.9055 11.5 13.0055 11.4 13.0055 11.2C13.8055 8.50001 14.6055 5.8 15.3055 3C15.4055 2.7 15.6055 2.40001 15.8055 2.20001C16.2055 1.90001 16.8055 1.90001 17.3055 2.20001C17.8055 2.50001 17.9055 3.09998 17.8055 3.59998C17.1055 6.09998 16.5055 8.60001 15.8055 11.2C15.7055 11.7 15.5055 12.1 15.4055 12.6C15.3055 13.3 15.4055 14 15.4055 14.6C15.4055 14.7 15.4055 14.7 15.4055 14.8C15.5055 15.2 15.8055 15.5 16.2055 15.6C16.6055 15.7 17.0055 15.6 17.3055 15.3C17.9055 14.6 18.5055 13.9 19.1055 13.2C19.7055 12.5 20.4055 12.2 21.2055 12C22.1055 11.7 22.5055 11.9 22.8055 12.6ZM9.6055 20.4C9.6055 20.4 9.6055 20.5 9.6055 20.6C9.6055 20.8 9.80549 20.9 9.90549 20.9C10.1055 20.9 10.2055 20.8 10.3055 20.6C10.3055 20.6 10.3055 20.5 10.3055 20.4C10.4055 18.6 11.2055 17.2 12.7055 16.2C13.3055 15.8 14.0055 15.6 14.7055 15.5C15.0055 15.5 15.1055 15.3 15.1055 15.1C15.1055 14.9 14.9055 14.8 14.7055 14.8C11.9055 15.2 9.7055 17.6 9.6055 20.4Z" fill="white"/>
</svg>
