<svg width="55" height="55" viewBox="0 0 55 55" fill="none" xmlns="http://www.w3.org/2000/svg">
<rect width="55" height="55" rx="5" fill="#063296"/>
<path d="M18.6969 45C18.6712 44.9799 18.6482 44.9525 18.6188 44.9415C17.7654 44.6292 17.3792 44.0896 17.3792 43.1847C17.3774 38.662 17.3774 34.1384 17.3774 29.6157C17.3774 26.4599 17.3774 23.3042 17.3774 20.1475V19.7421C17.0188 19.7202 16.8073 19.8845 16.7751 20.1986C16.765 20.3 16.7715 20.4032 16.7715 20.5064C16.7715 23.7534 16.7742 27.0005 16.7696 30.2475C16.7678 31.2648 15.8289 31.946 14.915 31.5944C14.3632 31.3826 14.0552 30.9644 14.0129 30.3745C13.9936 30.1024 14.0056 29.8275 14.0056 29.5545C14.0056 26.501 14.0037 23.4475 14.0056 20.394C14.0065 18.3742 15.3545 17 17.3857 16.9516C17.9227 16.9388 18.4606 16.9497 19.0095 16.9497C19.3185 18.1231 19.5153 19.322 20.3318 20.2315C20.3796 19.7576 20.4302 19.2937 20.4725 18.8299C20.4927 18.6116 20.6123 18.5367 20.8192 18.5523C20.9221 18.5596 21.027 18.5641 21.129 18.5523C21.4021 18.5185 21.5345 18.6335 21.5557 18.9038C21.5888 19.3385 21.6329 19.7722 21.6706 20.1795C22.0458 19.9959 22.2233 19.5859 22.9938 16.9844C24.7455 16.8155 26.3647 17.0365 27.5417 18.5322C27.6953 18.7276 27.8277 18.9458 27.939 19.1686C28.5376 20.3721 29.1251 21.5811 29.7173 22.7882C29.767 22.8896 29.8203 22.9882 29.9242 23.19C30.0594 22.3636 30.178 21.6359 30.3122 20.8177C30.1228 20.9264 30.0042 20.994 29.8571 21.078C29.4506 20.2215 29.0451 19.3704 28.6442 18.5167C28.6222 18.4692 28.624 18.4043 28.6295 18.3496C28.7785 16.8192 28.8805 15.2833 29.0902 13.7611C29.3927 11.5441 31.3366 9.95796 33.5857 9.99996C35.8054 10.042 37.6858 11.7157 37.9083 13.92C38.106 15.8686 38.2274 17.8245 38.3957 19.7759C38.4214 20.0772 38.483 20.384 38.5833 20.6698C39.1193 22.2066 39.6756 23.7361 40.2191 25.2701C40.5336 26.1568 40.1308 26.9092 39.2094 27.121C37.535 27.5054 35.8587 27.8798 34.1788 28.2414C33.3512 28.4195 32.6781 27.9912 32.5126 27.2196C32.3554 26.4864 32.8216 25.8335 33.6335 25.6527C34.8178 25.3888 36.0022 25.1258 37.2343 24.8519C36.9925 24.1735 36.7589 23.5178 36.5254 22.8613L36.4849 22.8677C36.4849 23.2539 36.4693 23.6411 36.4914 24.0264C36.5033 24.2447 36.4344 24.3223 36.2219 24.3634C35.6739 24.4684 35.1314 24.6017 34.5236 24.7378C34.7847 23.9963 35.0257 23.3151 35.2647 22.6339C35.4431 22.1262 35.33 21.9701 34.782 21.9701C33.9103 21.9692 33.0377 21.9692 32.166 21.9701C31.6464 21.971 31.5361 22.1308 31.7099 22.6285C31.9913 23.4347 32.269 24.2419 32.5632 25.0427C32.6322 25.2309 32.611 25.3368 32.4547 25.4783C31.7559 26.112 31.5867 27.0617 32.0005 27.8789C32.4106 28.6879 33.2869 29.1262 34.2165 28.939C35.3171 28.7181 36.4095 28.4615 37.5056 28.2204C37.604 28.1985 37.7042 28.1839 37.8467 28.1583C37.9368 28.7007 38.027 29.223 38.1115 29.7472C38.4711 31.9606 38.826 34.1749 39.1883 36.3874C39.2977 37.0576 39.009 37.411 38.323 37.4156C37.9102 37.4183 37.4982 37.4156 37.0247 37.4156V37.8237C37.0247 39.5441 36.9925 41.2653 37.0376 42.9847C37.0633 43.9709 36.7332 44.6594 35.7741 44.9991H35.0854C34.13 44.6365 33.7981 43.9371 33.8248 42.9427C33.8717 41.226 33.8376 39.5075 33.8376 37.789V37.4384H33.148V37.8301C33.148 39.5596 33.148 41.289 33.148 43.0176C33.148 44.1718 32.8951 44.558 31.8497 44.9991H31.2299C30.2727 44.6676 29.9113 43.9837 29.9297 42.9993C29.961 41.279 29.9389 39.5587 29.9389 37.8383V37.4165C29.4663 37.4165 29.0433 37.4192 28.6212 37.4165C27.9886 37.4119 27.7017 37.0896 27.7845 36.4586C27.8442 35.9957 27.9261 35.5364 28.0006 35.0752C28.3196 33.1093 28.6369 31.1424 28.9651 29.1774C28.9808 29.087 29.0874 28.9573 29.1711 28.94C30.0244 28.7665 30.6166 28.2989 30.8354 27.4534C31.0561 26.6005 30.7711 25.892 30.1191 25.3066C29.2934 24.5652 28.5008 23.7872 27.6585 23.0658C26.6075 22.1673 25.6586 21.1939 25.0103 19.9621C24.9643 19.8745 24.8825 19.806 24.8172 19.7284C24.7473 20.3548 24.7335 20.9456 24.7528 21.5354C24.762 21.8167 24.6876 22.0349 24.5009 22.2449C24.1662 22.6193 23.8434 23.0019 23.7211 23.5142C23.6917 23.6375 23.5611 23.7735 23.4416 23.831C23.1648 23.9634 22.8568 24.0328 22.5773 24.1616C21.5263 24.6437 21.0233 25.8563 21.4224 26.9156C21.8279 27.9894 22.98 28.5619 24.1073 28.246C24.3133 28.1885 24.5156 28.1154 24.7528 28.0387C24.7528 28.4953 24.7528 28.9153 24.7528 29.3344C24.7528 33.9484 24.7547 38.5634 24.7547 43.1774C24.7547 44.0941 24.3887 44.6146 23.5271 44.9397C23.4986 44.9507 23.4766 44.9799 23.4508 45H22.7621C21.7506 44.6502 21.4067 43.9261 21.4141 42.8906C21.4426 38.7935 21.426 34.6954 21.426 30.5973V30.1645H20.7015V30.5891C20.7015 34.7666 20.7015 38.9441 20.6996 43.1217C20.6996 43.3253 20.6932 43.5335 20.65 43.7307C20.501 44.4137 20.0045 44.768 19.3884 45H18.6997H18.6969ZM37.2159 18.5788C37.2159 18.4327 37.2215 18.3559 37.2159 18.2811C37.101 16.852 37.01 15.4203 36.861 13.9949C36.69 12.3549 35.2031 11.072 33.5103 11.0501C31.8395 11.0281 30.3269 12.3102 30.1228 13.9492C30.0079 14.8742 29.9371 15.8056 29.8479 16.7342C29.8019 17.2155 29.7578 17.6967 29.7182 18.1231C30.3214 18.0811 30.8888 18.0181 31.4589 18.008C32.5246 17.9898 33.5912 18.008 34.6569 18.0007C35.5397 17.9944 36.427 17.9533 37.2159 18.5797V18.5788ZM33.2041 18.7066C33.0009 18.8216 32.7158 18.8965 32.5889 19.0801C32.4722 19.2481 32.5145 19.533 32.5062 19.7667C32.5007 19.9137 33.0726 20.3383 33.2409 20.2836C33.4643 20.2105 33.7319 20.1165 33.856 19.9439C33.9765 19.7759 33.9471 19.4964 33.9682 19.2645C33.982 19.1084 33.4211 18.6984 33.205 18.7075L33.2041 18.7066ZM35.136 20.6205C35.1581 20.4324 34.7213 20.0197 34.4546 20.0507C34.2386 20.0763 33.9765 20.1767 33.8478 20.3347C33.7255 20.4844 33.7457 20.752 33.7107 20.9684C33.6786 21.1647 34.0749 21.5692 34.3664 21.5491C34.5898 21.5336 34.8629 21.4204 35.0017 21.2569C35.1259 21.1108 35.0965 20.8369 35.1351 20.6196L35.136 20.6205ZM32.3021 20.3137C32.1329 20.2982 31.6989 20.7319 31.7301 20.9711C31.7586 21.1939 31.8644 21.4642 32.0308 21.5948C32.189 21.719 32.4685 21.6943 32.6956 21.7272C32.8253 21.7464 33.3052 21.2213 33.2629 21.0478C33.2087 20.825 33.114 20.5639 32.9466 20.4315C32.7949 20.3128 32.5218 20.3456 32.303 20.3128L32.3021 20.3137Z" fill="white"/>
<path d="M18.1921 13.164C18.1967 11.5706 19.4767 10.3223 21.0968 10.3315C22.6738 10.3397 23.9381 11.6245 23.9289 13.206C23.9198 14.772 22.6297 16.0284 21.0371 16.023C19.4518 16.0175 18.1866 14.7455 18.1912 13.164H18.1921Z" fill="white"/>
<path d="M21.0086 18.3331C20.455 18.3331 20.4532 18.3331 20.3585 17.7908C20.204 16.8995 20.124 16.9443 21.083 16.9479C21.7929 16.9507 21.792 16.9479 21.6679 17.6447C21.6577 17.7004 21.6541 17.7579 21.6439 17.8136C21.5796 18.16 21.3678 18.3331 21.0086 18.3331Z" fill="white"/>
<path d="M25.5399 22.056C26.7224 23.1289 27.8801 24.1772 29.035 25.2282C29.3053 25.4738 29.5738 25.7222 29.8313 25.9815C30.3655 26.5202 30.3756 27.3293 29.8635 27.8525C29.3586 28.3684 28.5531 28.4003 28.006 27.8963C26.9228 26.8983 25.847 25.8911 24.7804 24.8757C24.2526 24.3735 24.214 23.653 24.6645 23.086C24.9266 22.7563 25.2107 22.4431 25.5399 22.0569V22.056Z" fill="white"/>
<path d="M23.7671 24.5927C24.1993 25.5341 25.0995 26.0308 25.768 26.8125C25.0692 27.0471 24.4062 27.3229 23.7147 27.4863C23.0104 27.6534 22.3354 27.1932 22.1488 26.5276C21.9538 25.8327 22.2968 25.1424 22.9883 24.8638C23.2393 24.7625 23.5005 24.684 23.7671 24.5927Z" fill="white"/>
<path d="M33.4983 17.126C31.9701 17.1352 30.7416 15.9326 30.7296 14.4159C30.7177 12.9038 31.9342 11.6665 33.4505 11.6482C34.975 11.6299 36.2431 12.8709 36.2467 14.3848C36.2504 15.8915 35.0219 17.1169 33.4983 17.126Z" fill="white"/>
<path d="M33.5121 19.5038C33.3917 19.5951 33.3061 19.7047 33.2501 19.691C33.1645 19.6709 33.0993 19.5659 33.0257 19.4965C33.1011 19.4298 33.1691 19.3266 33.2556 19.3084C33.3126 19.2965 33.3944 19.4088 33.5121 19.5029V19.5038Z" fill="white"/>
<path d="M34.6918 20.826C34.5695 20.9063 34.4785 21.0095 34.4233 20.9931C34.3397 20.9675 34.2808 20.8597 34.2109 20.7876C34.2909 20.7246 34.3645 20.626 34.4518 20.6132C34.5079 20.605 34.5824 20.7237 34.6909 20.826H34.6918Z" fill="white"/>
<path d="M32.7655 21.0141C32.6514 21.1054 32.5705 21.2159 32.5144 21.2049C32.4289 21.1875 32.3599 21.0862 32.2845 21.0195C32.3581 20.9492 32.4234 20.8442 32.5098 20.8223C32.5632 20.8086 32.6496 20.9218 32.7664 21.0141H32.7655Z" fill="white"/>
</svg>
