<svg width="38" height="38" viewBox="0 0 38 38" fill="none" xmlns="http://www.w3.org/2000/svg">
<path d="M13.5625 0H3.0625C2.25027 0 1.47132 0.322655 0.896986 0.896986C0.322655 1.47132 0 2.25027 0 3.0625V13.5625C0 13.9647 0.0792136 14.3629 0.233119 14.7345C0.387024 15.106 0.612606 15.4436 0.896986 15.728C1.18137 16.0124 1.51897 16.238 1.89053 16.3919C2.26209 16.5458 2.66033 16.625 3.0625 16.625H13.5625C13.9647 16.625 14.3629 16.5458 14.7345 16.3919C15.106 16.238 15.4436 16.0124 15.728 15.728C16.0124 15.4436 16.238 15.106 16.3919 14.7345C16.5458 14.3629 16.625 13.9647 16.625 13.5625V3.0625C16.625 2.66033 16.5458 2.26209 16.3919 1.89053C16.238 1.51897 16.0124 1.18137 15.728 0.896986C15.4436 0.612606 15.106 0.387024 14.7345 0.233119C14.3629 0.0792136 13.9647 0 13.5625 0V0ZM14 13.5625C14 13.6785 13.9539 13.7898 13.8719 13.8719C13.7898 13.9539 13.6785 14 13.5625 14H3.0625C2.94647 14 2.83519 13.9539 2.75314 13.8719C2.67109 13.7898 2.625 13.6785 2.625 13.5625V3.0625C2.625 2.94647 2.67109 2.83519 2.75314 2.75314C2.83519 2.67109 2.94647 2.625 3.0625 2.625H13.5625C13.6785 2.625 13.7898 2.67109 13.8719 2.75314C13.9539 2.83519 14 2.94647 14 3.0625V13.5625ZM13.5625 21H3.0625C2.25027 21 1.47132 21.3227 0.896986 21.897C0.322655 22.4713 0 23.2503 0 24.0625V34.5625C0 35.3747 0.322655 36.1537 0.896986 36.728C1.47132 37.3023 2.25027 37.625 3.0625 37.625H13.5625C13.9647 37.625 14.3629 37.5458 14.7345 37.3919C15.106 37.238 15.4436 37.0124 15.728 36.728C16.0124 36.4436 16.238 36.106 16.3919 35.7345C16.5458 35.3629 16.625 34.9647 16.625 34.5625V24.0625C16.625 23.6603 16.5458 23.2621 16.3919 22.8905C16.238 22.519 16.0124 22.1814 15.728 21.897C15.4436 21.6126 15.106 21.387 14.7345 21.2331C14.3629 21.0792 13.9647 21 13.5625 21ZM14 34.5625C14 34.6785 13.9539 34.7898 13.8719 34.8719C13.7898 34.9539 13.6785 35 13.5625 35H3.0625C2.94647 35 2.83519 34.9539 2.75314 34.8719C2.67109 34.7898 2.625 34.6785 2.625 34.5625V24.0625C2.625 23.9465 2.67109 23.8352 2.75314 23.7531C2.83519 23.6711 2.94647 23.625 3.0625 23.625H13.5625C13.6785 23.625 13.7898 23.6711 13.8719 23.7531C13.9539 23.8352 14 23.9465 14 24.0625V34.5625ZM34.5625 0H24.0625C23.2503 0 22.4713 0.322655 21.897 0.896986C21.3227 1.47132 21 2.25027 21 3.0625V13.5625C21 13.9647 21.0792 14.3629 21.2331 14.7345C21.387 15.106 21.6126 15.4436 21.897 15.728C22.1814 16.0124 22.519 16.238 22.8905 16.3919C23.2621 16.5458 23.6603 16.625 24.0625 16.625H34.5625C34.9647 16.625 35.3629 16.5458 35.7345 16.3919C36.106 16.238 36.4436 16.0124 36.728 15.728C37.0124 15.4436 37.238 15.106 37.3919 14.7345C37.5458 14.3629 37.625 13.9647 37.625 13.5625V3.0625C37.625 2.25027 37.3023 1.47132 36.728 0.896986C36.1537 0.322655 35.3747 0 34.5625 0ZM35 13.5625C35 13.6785 34.9539 13.7898 34.8719 13.8719C34.7898 13.9539 34.6785 14 34.5625 14H24.0625C23.9465 14 23.8352 13.9539 23.7531 13.8719C23.6711 13.7898 23.625 13.6785 23.625 13.5625V3.0625C23.625 2.94647 23.6711 2.83519 23.7531 2.75314C23.8352 2.67109 23.9465 2.625 24.0625 2.625H34.5625C34.6785 2.625 34.7898 2.67109 34.8719 2.75314C34.9539 2.83519 35 2.94647 35 3.0625V13.5625ZM21 29.3125V22.3125C21 21.9644 21.1383 21.6306 21.3844 21.3844C21.6306 21.1383 21.9644 21 22.3125 21C22.6606 21 22.9944 21.1383 23.2406 21.3844C23.4867 21.6306 23.625 21.9644 23.625 22.3125V29.3125C23.625 29.6606 23.4867 29.9944 23.2406 30.2406C22.9944 30.4867 22.6606 30.625 22.3125 30.625C21.9644 30.625 21.6306 30.4867 21.3844 30.2406C21.1383 29.9944 21 29.6606 21 29.3125ZM37.625 25.8125C37.625 26.1606 37.4867 26.4944 37.2406 26.7406C36.9944 26.9867 36.6606 27.125 36.3125 27.125H30.625V36.3125C30.625 36.6606 30.4867 36.9944 30.2406 37.2406C29.9944 37.4867 29.6606 37.625 29.3125 37.625H22.3125C21.9644 37.625 21.6306 37.4867 21.3844 37.2406C21.1383 36.9944 21 36.6606 21 36.3125C21 35.9644 21.1383 35.6306 21.3844 35.3844C21.6306 35.1383 21.9644 35 22.3125 35H28V22.3125C28 21.9644 28.1383 21.6306 28.3844 21.3844C28.6306 21.1383 28.9644 21 29.3125 21C29.6606 21 29.9944 21.1383 30.2406 21.3844C30.4867 21.6306 30.625 21.9644 30.625 22.3125V24.5H36.3125C36.6606 24.5 36.9944 24.6383 37.2406 24.8844C37.4867 25.1306 37.625 25.4644 37.625 25.8125ZM37.625 32.8125V36.3125C37.625 36.6606 37.4867 36.9944 37.2406 37.2406C36.9944 37.4867 36.6606 37.625 36.3125 37.625C35.9644 37.625 35.6306 37.4867 35.3844 37.2406C35.1383 36.9944 35 36.6606 35 36.3125V32.8125C35 32.4644 35.1383 32.1306 35.3844 31.8844C35.6306 31.6383 35.9644 31.5 36.3125 31.5C36.6606 31.5 36.9944 31.6383 37.2406 31.8844C37.4867 32.1306 37.625 32.4644 37.625 32.8125V32.8125Z" fill="#545454"/>
</svg>
